<?xml version="1.0" standalone="no"?>
<!DOCTYPE svg PUBLIC "-//W3C//DTD SVG 20010904//EN"
 "http://www.w3.org/TR/2001/REC-SVG-20010904/DTD/svg10.dtd">
<svg version="1.0" xmlns="http://www.w3.org/2000/svg"
 width="1290.000000pt" height="1290.000000pt" viewBox="0 0 1290.000000 1290.000000"
 preserveAspectRatio="xMidYMid meet">
<metadata>
Created by potrace 1.14, written by Peter Selinger 2001-2017
</metadata>
<g transform="translate(0.000000,1290.000000) scale(0.100000,-0.100000)"
fill="#000000" stroke="none">
<path d="M0 6675 c0 -3646 4 -6225 9 -6225 5 0 11 7 15 15 6 18 31 19 75 4 28
-10 31 -15 31 -54 0 -24 -5 -56 -11 -72 -6 -15 -11 -45 -10 -65 1 -38 -29
-121 -48 -132 -6 -4 -11 -28 -11 -53 0 -34 -6 -53 -22 -70 l-21 -23 362 0 362
0 22 25 c12 13 34 27 50 31 24 6 28 3 33 -25 l6 -31 149 0 c145 0 149 0 174
25 14 14 25 32 25 40 0 8 9 16 20 16 11 1 25 3 30 4 6 1 14 3 20 4 5 0 12 17
16 36 3 19 12 35 20 35 35 0 62 23 72 64 5 23 10 32 11 19 2 -31 21 -39 21 -9
0 17 6 26 16 26 12 0 15 9 13 43 -1 23 3 53 10 65 7 13 10 34 7 47 -4 15 -1
25 8 28 8 3 81 7 163 8 153 2 177 5 167 20 -8 13 9 11 61 -7 64 -21 87 -16 97
23 6 21 19 38 38 48 26 14 34 14 65 1 19 -8 35 -20 35 -25 0 -6 13 -11 29 -11
40 0 49 -27 17 -57 -14 -13 -30 -23 -36 -23 -5 0 -10 -7 -10 -15 0 -8 -8 -15
-17 -15 -17 0 -78 -17 -103 -30 -8 -4 -17 -17 -20 -30 -3 -13 -12 -26 -20 -30
-8 -4 -27 -13 -43 -21 -16 -7 -27 -20 -27 -33 0 -38 -11 -61 -37 -80 -19 -14
-27 -16 -33 -6 -6 9 -14 8 -34 -5 -35 -23 -53 -55 -31 -55 11 0 15 -6 10 -19
-6 -20 17 -51 40 -51 19 0 75 49 75 66 0 8 6 11 15 8 9 -4 23 4 36 20 12 15
30 26 44 26 26 0 109 24 137 40 10 6 27 10 39 10 26 0 55 26 36 33 -9 4 -9 6
1 6 6 1 12 7 12 14 0 7 22 19 50 26 28 7 48 17 45 22 -3 4 7 11 22 14 15 4 36
10 45 16 41 22 92 -1 72 -33 -4 -6 5 -8 22 -6 26 3 30 7 34 48 8 66 16 74 50
50 15 -11 35 -20 44 -20 9 0 16 -8 16 -20 0 -13 7 -20 19 -20 11 0 23 -4 26
-10 10 -16 53 -12 73 8 20 20 55 26 137 24 33 -1 129 -4 213 -5 121 -2 155 -6
163 -17 14 -24 11 -34 -22 -55 -17 -11 -39 -36 -49 -56 -28 -53 -41 -60 -153
-76 -180 -26 -200 -30 -292 -56 -49 -14 -130 -36 -178 -50 -48 -14 -91 -28
-95 -32 -15 -15 188 15 233 35 33 14 163 38 277 51 109 12 216 8 318 -12 30
-5 80 -15 110 -21 85 -16 112 -28 99 -44 -8 -10 104 -13 625 -14 554 -1 636 1
636 14 0 23 -20 29 -39 12 -22 -20 -41 -21 -41 -1 0 17 -16 21 -22 5 -2 -6
-16 -8 -35 -4 -27 5 -32 11 -35 37 -3 27 -7 32 -31 34 -16 1 -34 6 -40 11 -12
9 -88 7 -145 -4 -20 -4 -38 -2 -47 6 -8 7 -26 10 -40 6 -14 -4 -25 -2 -25 4 0
5 -10 10 -22 10 l-21 0 23 25 c13 14 20 25 16 25 -5 0 -3 7 4 15 7 9 10 19 6
23 -4 4 -14 -1 -21 -12 -8 -11 -21 -16 -30 -13 -18 8 -20 53 -3 60 9 4 8 6 -2
6 -8 0 -46 -15 -84 -33 -37 -19 -74 -32 -81 -30 -7 3 -16 0 -20 -6 -4 -6 -15
-8 -25 -5 -13 4 -27 -5 -49 -32 -27 -32 -35 -20 -10 13 5 6 6 14 2 18 -4 4 -1
11 7 16 13 8 13 11 -2 26 -15 16 -19 15 -51 -5 -44 -27 -55 -27 -31 0 20 22
29 79 12 79 -5 0 -6 5 -3 10 4 6 11 8 16 5 5 -4 9 3 9 15 0 19 -46 48 -58 36
-3 -3 -18 2 -34 12 -28 16 -29 19 -22 67 14 94 16 90 -49 90 -62 0 -83 15 -66
46 5 10 9 31 9 46 0 16 7 38 15 49 8 10 15 27 15 36 0 15 -3 16 -27 5 -16 -6
-31 -16 -34 -20 -4 -5 -10 -4 -13 2 -5 7 -16 1 -31 -17 l-24 -27 3 60 c2 33 7
79 11 102 5 29 4 48 -5 57 -6 8 -13 27 -14 41 -4 31 -5 32 -48 53 -18 10 -34
23 -34 30 -1 6 -2 18 -3 25 0 7 -26 21 -57 31 -43 14 -53 20 -44 31 6 7 13 41
16 76 3 35 13 83 21 107 9 23 14 45 11 48 -3 3 -22 -6 -42 -20 -36 -24 -66
-25 -94 -3 -8 7 -18 5 -30 -7 -19 -17 -72 -22 -72 -8 0 15 35 41 58 45 12 2
25 7 29 12 5 4 -3 5 -17 1 -14 -3 -51 -9 -83 -13 -32 -3 -60 -10 -63 -14 -3
-5 -15 -9 -27 -9 -19 1 -18 3 8 17 17 8 40 25 53 36 22 20 22 22 6 34 -17 12
-17 15 4 42 18 25 19 28 4 26 -9 -2 -35 -6 -56 -9 l-39 -5 33 34 c19 19 32 37
29 39 -2 3 -18 6 -34 9 -40 5 -44 26 -6 33 24 5 31 13 37 38 3 17 13 39 21 48
14 15 13 18 -11 24 -14 3 -32 4 -40 1 -14 -6 -48 27 -39 37 4 3 17 6 29 6 13
0 25 4 29 9 8 15 -13 23 -31 13 -21 -12 -54 -4 -54 13 0 11 19 21 73 39 23 7
18 28 -9 40 -11 5 -31 25 -43 44 -20 30 -21 37 -10 47 37 29 63 69 84 129 23
66 20 82 -13 72 -25 -8 -37 4 -53 54 -13 41 -18 46 -59 59 -85 26 -87 32 -9
26 41 -3 78 -3 81 0 12 12 -5 55 -23 55 -10 0 -21 5 -25 11 -8 14 14 29 44 29
37 0 25 19 -16 26 -51 8 -68 34 -41 62 10 12 19 28 19 37 0 9 16 25 35 36 19
12 35 25 35 30 0 5 -16 9 -35 9 -19 0 -35 -4 -35 -10 0 -5 -7 -10 -15 -10 -19
0 -19 24 0 40 23 19 13 34 -26 40 -48 7 -42 27 16 58 36 20 51 34 54 52 1 14
7 27 11 30 4 3 11 24 15 47 6 38 4 44 -24 69 -21 19 -29 33 -25 46 4 13 -2 21
-23 30 l-28 12 45 6 c59 7 80 20 83 53 1 18 21 43 61 80 52 48 58 55 47 74 -9
19 -7 25 16 43 20 16 24 23 15 32 -19 19 -14 32 19 52 28 16 31 22 26 53 -3
19 -1 45 5 59 14 30 3 42 -23 25 -27 -16 -37 -6 -20 21 11 17 10 23 -9 40 -19
18 -20 21 -6 37 26 28 21 93 -9 119 -21 18 -23 26 -15 47 18 48 12 101 -13
118 -13 8 -29 33 -37 56 -12 38 -12 42 8 60 12 10 22 28 22 40 0 24 -53 123
-75 141 -8 7 -15 28 -15 47 0 18 -7 44 -15 57 -9 13 -18 47 -22 75 -6 52 -36
91 -69 91 -13 0 -19 25 -14 59 1 10 -10 12 -50 8 -45 -5 -50 -4 -45 12 3 11
-4 26 -20 41 -14 13 -25 33 -25 46 0 12 -7 37 -14 56 -8 19 -12 44 -10 56 5
16 -3 26 -33 45 -57 37 -80 63 -88 96 -3 16 -13 35 -21 42 -16 14 -19 72 -3
100 9 17 4 27 -27 62 -56 62 -61 64 -99 27 l-33 -32 -97 7 c-71 6 -95 11 -91
20 3 9 -10 14 -41 18 -25 3 -49 11 -54 18 -5 8 -9 38 -9 67 0 29 -6 68 -14 87
-9 21 -11 37 -5 40 14 9 11 25 -6 25 -8 0 -15 5 -15 10 0 6 6 10 13 10 8 0 22
9 32 20 15 17 16 22 4 36 -11 14 -11 18 -1 21 6 3 12 13 12 23 0 15 8 18 53
16 46 -1 52 1 55 21 2 13 -5 27 -20 37 -30 21 -48 73 -36 107 10 29 1 56 -37
108 -18 25 -25 47 -25 82 0 30 -6 53 -16 64 -9 8 -13 22 -10 30 4 10 -5 19
-27 29 -24 10 -45 33 -76 85 -39 64 -47 71 -75 71 -17 0 -51 10 -76 21 -87 39
-113 87 -69 128 18 17 20 27 15 64 -6 42 -9 46 -54 62 -106 38 -132 51 -132
63 0 6 5 12 10 12 14 0 13 103 -2 118 -9 9 -8 16 5 30 11 12 17 36 17 65 0 25
4 48 9 51 5 3 18 21 29 39 18 31 18 37 5 76 -12 37 -12 45 0 59 23 28 40 80
34 108 -6 36 19 64 59 64 18 0 38 8 49 20 10 11 23 19 29 18 24 -3 63 22 94
60 19 23 44 42 61 45 16 3 46 18 66 32 21 14 44 25 52 25 23 0 111 48 121 66
8 14 29 17 129 19 90 2 126 7 144 19 38 24 221 20 254 -6 19 -15 35 -18 74
-13 46 5 51 3 75 -26 17 -20 26 -42 26 -65 0 -31 2 -34 24 -28 19 4 28 0 40
-18 9 -13 33 -30 53 -37 21 -7 48 -22 59 -33 17 -15 30 -18 56 -13 31 6 35 4
57 -35 15 -27 36 -47 57 -56 35 -15 38 -22 48 -107 3 -26 12 -61 21 -77 8 -16
15 -45 15 -65 0 -25 8 -44 25 -61 23 -23 25 -30 16 -57 -21 -69 -24 -156 -6
-193 11 -24 15 -47 11 -69 -8 -39 10 -194 25 -228 5 -12 23 -47 39 -77 19 -36
29 -71 29 -101 1 -36 7 -53 30 -80 76 -88 89 -107 100 -141 7 -21 16 -38 21
-38 5 0 15 -6 22 -12 23 -22 86 -68 93 -68 4 0 30 -19 58 -42 58 -49 80 -62
162 -93 33 -13 82 -35 109 -49 27 -14 58 -26 68 -26 10 0 30 -12 43 -27 20
-23 27 -26 42 -17 10 6 19 21 21 33 4 24 -13 29 -22 5 -3 -8 -10 -12 -16 -9
-15 10 -12 35 5 35 8 0 14 3 14 8 -1 4 -1 9 1 12 9 25 7 54 -5 66 -14 14 -20
46 -16 87 1 9 -3 17 -9 17 -7 0 -8 6 0 19 5 11 7 40 4 65 -6 39 -3 52 20 84
27 40 61 120 76 180 5 19 15 41 24 51 19 21 20 33 4 50 -7 6 -13 35 -14 64 -1
29 -5 64 -9 79 -5 20 -2 35 15 58 16 23 21 39 16 63 -3 18 -9 49 -12 69 -4 20
-14 44 -24 53 -20 18 -17 46 12 87 26 38 23 53 -12 50 -3 0 -5 57 -4 128 0
125 1 129 29 166 23 30 26 40 17 53 -24 32 -25 45 -10 87 11 30 12 46 5 53 -8
8 0 23 28 51 l38 39 -24 20 c-19 16 -22 22 -11 32 16 18 15 45 -4 74 -12 19
-14 38 -9 88 7 60 5 66 -16 81 l-24 16 29 23 c24 19 28 31 30 77 3 66 11 88
44 116 23 19 24 23 13 57 -14 41 -9 57 19 57 48 0 62 20 34 51 -14 15 -13 19
14 38 17 12 34 21 39 21 14 0 74 67 99 109 13 23 39 44 73 61 29 15 58 37 64
51 7 13 21 25 32 27 11 2 29 12 40 23 33 30 74 33 144 9 35 -11 71 -18 79 -15
9 3 42 -4 74 -16 32 -12 61 -19 65 -16 3 4 6 20 7 37 1 32 13 40 22 15 4 -8
17 -15 29 -15 13 0 26 -4 29 -9 3 -5 30 -20 60 -34 84 -40 153 -93 250 -191
92 -94 193 -209 212 -241 6 -12 16 -16 27 -12 17 6 20 38 19 167 0 56 -1 60
-17 54 -11 -5 -15 1 -15 25 0 23 5 31 18 31 9 1 30 11 46 25 23 18 34 21 52
15 55 -21 78 -65 93 -180 4 -30 21 -82 38 -115 48 -92 63 -134 63 -173 0 -19
7 -43 16 -53 10 -11 14 -25 10 -36 -6 -13 -9 -14 -15 -4 -6 10 -10 9 -15 -4
-3 -9 -10 -13 -16 -10 -6 4 -8 10 -5 15 3 5 -9 8 -27 8 -18 0 -40 0 -50 1 -19
1 -68 83 -73 124 -2 15 -11 34 -19 42 -19 19 -27 19 -20 1 4 -11 0 -13 -15 -9
-17 4 -20 2 -15 -13 4 -11 10 -23 14 -29 4 -5 24 -54 44 -109 41 -111 59 -148
91 -191 40 -52 56 -107 65 -215 4 -58 15 -125 25 -150 10 -27 14 -57 11 -75
-9 -46 -10 -44 7 -139 16 -85 16 -91 -4 -165 -12 -42 -35 -103 -51 -136 -31
-60 -45 -125 -55 -242 -3 -46 1 -83 17 -140 30 -104 39 -122 69 -130 14 -3 35
-14 46 -23 11 -10 34 -25 52 -34 18 -9 36 -22 40 -29 14 -23 74 -47 120 -47
24 0 51 -4 61 -10 47 -27 112 -43 165 -41 34 1 57 -2 57 -9 0 -19 44 -10 69
13 28 26 115 54 171 56 56 2 92 12 130 37 19 12 55 30 80 40 25 9 61 32 80 50
19 18 59 41 88 50 76 25 122 78 122 142 0 26 5 66 10 90 8 33 7 49 -4 70 -8
15 -14 44 -14 64 0 45 -14 89 -64 197 -21 47 -41 105 -44 131 -3 25 -15 68
-26 97 -13 35 -21 82 -23 145 -2 51 -8 118 -15 148 -6 30 -12 72 -14 93 -2 20
-8 43 -14 50 -6 6 -13 44 -17 82 -4 39 -14 85 -22 104 -14 30 -14 54 -4 195
15 208 26 294 40 329 6 16 11 43 11 60 0 18 6 44 14 58 7 14 16 43 20 65 5 21
11 44 15 49 9 12 26 73 39 140 7 34 7 54 0 62 -6 8 -8 31 -3 59 6 41 11 47 44
62 21 10 46 25 56 35 12 13 26 16 46 12 17 -4 29 -2 29 3 0 6 16 20 36 31 20
12 38 30 41 41 4 17 14 20 55 20 31 0 55 -6 64 -15 17 -17 70 -20 108 -5 21 7
26 6 31 -10 8 -26 63 -52 95 -45 20 4 29 -1 45 -27 10 -18 23 -41 27 -51 4
-10 28 -27 52 -38 25 -11 48 -24 51 -29 3 -6 16 -10 29 -10 12 0 32 -9 44 -20
12 -11 26 -20 32 -20 6 0 9 -4 6 -9 -6 -9 32 -70 89 -145 25 -33 27 -41 18
-69 -14 -40 -15 -97 -2 -97 5 0 9 -12 9 -27 1 -18 11 -36 30 -52 26 -22 29
-28 23 -68 -5 -35 -2 -48 15 -66 25 -28 46 -78 61 -147 7 -32 19 -59 31 -67
16 -11 18 -18 10 -33 -9 -17 -5 -47 16 -128 2 -7 15 -17 29 -22 l26 -10 -26
-34 -26 -35 21 -11 c20 -11 20 -13 6 -29 -9 -10 -16 -22 -16 -28 0 -6 20 -51
45 -102 25 -50 45 -105 45 -121 0 -17 8 -38 19 -49 10 -10 23 -26 28 -35 5 -9
24 -24 43 -34 24 -12 37 -27 42 -49 8 -33 19 -39 78 -45 19 -2 11 -8 -37 -26
-34 -13 -65 -27 -68 -31 -3 -5 16 -20 42 -32 54 -27 64 -44 33 -54 -42 -13 -4
-25 96 -30 91 -5 97 -4 69 9 l-30 14 27 7 c16 4 35 4 44 1 14 -5 15 -1 10 26
-4 18 -11 62 -16 98 -5 36 -14 94 -20 130 -8 48 -9 100 0 200 10 128 10 138
-9 180 -11 25 -21 50 -21 57 0 7 -18 49 -40 94 -37 75 -40 89 -40 162 0 72 3
84 28 116 63 82 69 97 74 163 4 61 6 66 51 111 26 26 47 53 47 60 0 6 14 28
31 47 34 39 63 90 73 133 8 34 33 64 69 83 15 8 27 21 27 30 0 8 15 21 33 29
42 18 84 62 71 75 -14 14 -116 30 -191 30 -34 0 -65 5 -68 11 -8 12 -55 33
-71 31 -6 -1 -19 7 -28 17 -10 11 -25 17 -33 14 -8 -3 -19 0 -23 7 -7 11 -11
11 -25 0 -12 -10 -15 -10 -13 -1 4 17 -47 55 -61 47 -6 -4 -11 -17 -12 -29 -1
-39 -28 76 -29 123 -1 51 -14 70 -82 121 -26 18 -48 39 -48 46 0 7 27 39 60
72 51 51 60 66 60 96 0 26 -7 43 -26 60 -15 14 -32 25 -37 25 -6 0 -18 6 -26
13 -20 17 -153 37 -242 37 -37 0 -85 7 -108 15 -22 8 -41 10 -41 6 0 -5 7 -11
15 -15 8 -3 12 -11 9 -19 -10 -26 23 -41 64 -29 46 13 128 10 144 -6 7 -7 20
-12 30 -12 10 0 21 -7 25 -16 5 -13 15 -15 48 -11 26 4 46 2 53 -5 15 -15 16
-55 2 -63 -6 -4 -8 -10 -5 -15 8 -12 -31 -50 -51 -50 -9 0 -30 11 -46 25 -26
22 -38 25 -97 23 -112 -3 -182 11 -215 43 -15 16 -34 29 -41 29 -7 0 -45 18
-84 40 -39 22 -73 40 -77 40 -4 0 -12 7 -18 16 -9 11 -32 16 -81 18 -44 1 -90
10 -125 24 -30 12 -67 22 -82 22 -28 0 -88 43 -88 64 0 17 49 50 84 56 48 8
45 34 -10 88 -26 26 -58 64 -72 84 -13 21 -29 38 -33 38 -5 0 -9 9 -9 19 0 38
11 51 44 51 21 0 40 8 55 24 19 20 21 27 10 44 -7 11 -18 18 -24 15 -7 -2 -15
6 -18 17 -3 12 -10 19 -16 16 -19 -12 -22 16 -20 206 5 369 -3 766 -22 1168
-12 247 -14 433 -10 722 2 86 0 161 -2 165 -3 5 -6 177 -8 383 -1 206 -4 408
-7 448 l-5 72 -32 0 -33 0 -6 -102 c-4 -57 -6 -133 -5 -170 2 -42 -1 -72 -9
-80 -15 -15 -20 0 -25 67 -2 28 -4 -74 -5 -227 -2 -210 -5 -278 -15 -281 -9
-4 -9 -6 1 -6 8 -1 12 -20 12 -62 0 -33 5 -69 10 -80 9 -15 7 -19 -5 -19 -13
0 -15 -6 -11 -27 16 -71 5 -1638 -12 -1938 -4 -60 -7 -140 -7 -177 0 -58 -2
-68 -17 -68 -33 0 -143 47 -300 129 -86 44 -166 81 -178 81 -11 0 -20 4 -20 9
0 5 -10 12 -22 16 -13 3 -32 10 -43 15 -11 5 -49 18 -85 30 -59 19 -87 25
-185 34 -16 1 -50 -3 -75 -11 -25 -7 -55 -13 -66 -13 -12 0 -27 -7 -34 -15
-19 -23 -54 -15 -58 13 -2 12 -7 22 -12 22 -13 0 -116 161 -125 195 -4 17 -8
50 -7 75 l0 45 -7 -40 -7 -40 -7 60 c-23 177 -37 247 -62 302 -8 17 -15 35
-15 41 0 5 -11 21 -25 36 -14 15 -25 31 -25 36 0 5 -9 11 -20 15 -25 8 -99 92
-106 122 -4 13 -10 23 -15 23 -5 0 -9 4 -9 10 0 5 -18 48 -40 95 -22 47 -40
90 -40 96 0 6 -5 7 -11 3 -7 -4 -9 0 -5 14 4 13 1 22 -9 26 -9 3 -13 11 -10
16 4 6 -4 19 -17 30 -20 17 -21 19 -4 20 12 0 16 5 12 16 -3 9 -6 18 -6 20 0
2 -4 4 -10 4 -5 0 -10 -8 -10 -17 0 -15 -4 -13 -20 7 -24 31 -51 100 -40 100
5 0 11 -6 13 -12 4 -9 6 -8 7 2 1 8 3 26 5 40 3 28 -11 60 -26 60 -6 0 -7 -4
-4 -10 3 -5 0 -7 -9 -4 -8 3 -16 -1 -18 -12 -2 -14 -6 -12 -17 9 -11 21 -12
32 -3 50 6 12 13 29 15 37 4 9 6 6 6 -7 1 -21 19 -33 23 -15 7 33 3 62 -9 66
-9 4 -11 11 -5 23 4 10 9 69 11 132 2 63 7 126 13 140 5 14 10 49 10 78 0 39
5 52 17 56 14 3 17 16 15 76 -1 67 0 73 21 81 28 11 39 26 25 35 -6 4 -10 133
-10 366 l0 359 -361 0 -362 0 7 -147 c12 -266 18 -358 27 -368 5 -7 -1 -11
-16 -11 -14 0 -25 6 -25 12 0 7 -10 16 -22 20 -13 4 -45 26 -72 50 -68 62
-133 104 -159 104 -12 0 -36 9 -53 19 -31 19 -93 32 -149 32 -16 -1 -63 0
-102 0 -59 0 -73 -3 -73 -16 0 -8 -7 -15 -16 -15 -12 0 -15 -6 -11 -22 3 -13
0 -31 -8 -41 -13 -18 -14 -17 -18 5 -4 23 -4 23 -6 1 0 -13 -5 -23 -10 -23 -5
0 -7 -10 -3 -22 5 -20 3 -21 -11 -10 -14 12 -17 9 -21 -20 -6 -33 8 -304 20
-387 4 -25 15 -60 25 -78 21 -38 24 -47 9 -38 -11 7 -13 -15 -4 -40 6 -13 9
-14 16 -3 7 9 8 4 5 -15 -2 -15 0 -30 5 -33 6 -4 16 -22 24 -41 8 -18 19 -31
24 -28 13 8 27 -31 34 -92 4 -26 15 -61 27 -76 11 -16 18 -31 15 -34 -3 -3 2
-22 10 -41 8 -20 12 -42 10 -48 -3 -8 1 -11 10 -7 17 6 19 -13 2 -21 -9 -3 -8
-8 5 -16 9 -6 17 -20 17 -30 0 -10 5 -22 10 -25 8 -5 7 -12 -2 -23 -10 -12
-10 -14 0 -8 7 4 12 1 12 -8 0 -9 6 -16 14 -16 17 0 101 -164 92 -179 -4 -6 5
-31 20 -56 14 -25 24 -49 20 -52 -3 -4 -6 -3 -6 1 0 4 -7 0 -16 -9 -17 -16
-13 -45 6 -45 7 0 9 8 5 20 -5 15 -3 19 10 14 9 -4 14 -12 11 -19 -2 -7 6 -18
18 -25 13 -6 34 -30 47 -51 13 -22 34 -52 47 -67 27 -32 37 -66 26 -84 -20
-31 -3 -83 41 -123 33 -31 45 -51 53 -91 6 -29 20 -67 31 -85 16 -28 20 -61
26 -194 6 -165 11 -199 25 -190 11 7 20 -49 21 -136 1 -72 -15 -129 -47 -169
-7 -8 -15 -37 -17 -65 -8 -71 -25 -123 -49 -147 -15 -15 -17 -22 -8 -28 8 -5
7 -9 -4 -13 -10 -4 -16 -19 -16 -42 0 -24 -4 -35 -15 -35 -10 0 -15 -10 -15
-30 0 -20 -8 -35 -25 -46 -32 -21 -75 -26 -68 -8 3 8 1 14 -5 14 -14 0 -54 69
-47 81 6 8 -8 13 -28 10 -4 0 -7 4 -7 9 0 15 -21 12 -34 -6 -7 -9 -18 -12 -28
-9 -14 6 -28 29 -83 136 -5 11 -16 17 -23 14 -7 -2 -17 5 -22 18 -10 25 -56
70 -82 80 -14 5 -18 18 -18 62 0 58 -5 67 -52 98 -38 24 -75 21 -104 -8 -14
-14 -35 -25 -47 -25 -13 0 -27 -4 -32 -9 -6 -5 -41 -11 -78 -14 -54 -5 -69 -3
-74 8 -3 8 -13 15 -22 15 -28 0 -51 37 -51 83 0 42 7 59 44 111 18 26 18 29 3
56 -9 15 -17 36 -17 45 0 9 -7 23 -15 31 -8 9 -15 11 -15 5 0 -6 -4 -11 -10
-11 -5 0 -10 7 -10 16 0 25 -53 94 -73 94 -40 0 -66 53 -37 73 11 8 21 24 22
37 2 19 -3 25 -27 30 -16 4 -39 11 -50 17 -15 9 -25 8 -40 -3 -25 -18 -55 -18
-55 1 0 8 -7 15 -16 15 -9 0 -14 7 -12 18 2 11 -3 27 -11 36 -14 17 -17 83 -6
151 4 23 3 26 -4 10 -8 -19 -9 -19 -15 5 -3 14 -7 52 -8 85 l-3 60 -162 3
c-190 3 -188 2 -195 110 -4 56 4 81 15 50 2 -7 8 -9 13 -5 4 4 3 16 -4 25 -7
9 -15 25 -18 35 -4 9 -12 17 -19 17 -7 0 -16 6 -18 13 -4 9 -8 8 -16 -3 -8
-12 -11 -8 -11 17 0 17 6 33 13 36 16 6 7 14 -25 22 -24 6 -29 3 -38 -19 -5
-14 -13 -26 -17 -26 -5 0 -19 -10 -33 -23 -25 -22 -25 -22 -24 -202 l1 -180
76 -3 76 -3 7 -36 c5 -28 3 -39 -10 -48 -9 -7 -16 -21 -16 -32 0 -18 -8 -21
-70 -25 -38 -3 -77 -11 -85 -18 -13 -11 -14 -10 -9 6 6 16 2 15 -20 -6 -22
-20 -24 -26 -12 -28 11 -3 16 -15 16 -43 0 -21 5 -39 10 -39 20 0 10 -45 -12
-55 -21 -9 -23 -15 -20 -83 4 -74 -14 -171 -33 -184 -18 -13 -26 -8 -24 15 1
12 -6 39 -15 60 -9 21 -19 51 -23 68 -3 16 -10 32 -14 35 -5 3 -9 14 -9 25 0
10 -7 19 -15 19 -19 0 -13 43 9 66 9 8 16 21 16 27 0 7 -4 6 -10 -3 -7 -11
-11 -9 -19 13 -6 15 -17 30 -25 33 -9 3 -18 14 -21 25 -4 10 -12 19 -19 19
-17 0 -35 61 -40 140 -6 81 -21 152 -41 193 -8 18 -14 55 -13 82 1 28 -5 73
-13 101 -10 32 -12 61 -7 80 4 16 3 42 -2 59 -28 93 -40 160 -34 191 5 28 3
34 -10 34 -13 0 -17 -9 -16 -42 1 -24 -3 -67 -8 -97 -9 -51 -2 -109 18 -156
11 -23 14 -74 12 -167 -2 -74 -17 -91 -27 -30 -4 20 -15 49 -26 64 -10 15 -19
31 -19 37 0 5 -5 11 -12 13 -11 4 -12 21 -8 238 2 98 -9 218 -22 254 -6 15
-13 40 -14 55 -2 14 -9 76 -17 137 -8 61 -12 127 -10 145 3 23 1 30 -5 21 -6
-9 -11 24 -16 95 -4 59 -11 110 -15 113 -14 9 -32 50 -26 60 8 13 7 153 -2
235 l-8 70 -6 -45 c-3 -25 -7 36 -7 135 -1 99 -7 226 -14 283 l-12 102 -382 0
-383 0 1 -80 c0 -44 3 -80 7 -80 16 0 31 -91 31 -197 1 -211 18 -496 34 -572
9 -40 16 -85 16 -100 -1 -57 26 -357 33 -368 4 -6 12 -96 17 -200 19 -343 27
-438 39 -461 9 -16 9 -22 0 -22 -13 0 -7 -96 11 -165 13 -52 13 -111 0 -136
-7 -13 -7 -19 0 -19 5 0 10 -17 10 -37 0 -28 -3 -34 -10 -23 -8 13 -12 11 -30
-7 -11 -12 -20 -33 -20 -45 0 -13 -9 -29 -21 -36 -18 -11 -23 -10 -38 7 -13
15 -21 17 -29 9 -6 -6 -18 -8 -28 -4 -17 6 -16 32 2 94 4 13 3 22 -2 20 -17
-6 -52 41 -59 79 -15 86 -23 191 -18 235 6 52 -11 108 -32 108 -18 0 -23 29
-12 64 9 25 7 32 -11 47 -17 13 -22 28 -22 64 0 26 -6 73 -14 104 -8 31 -14
63 -15 71 -2 34 -17 116 -23 126 -16 25 -40 207 -41 304 -1 58 -3 94 -5 81
l-4 -23 -14 27 c-16 31 -18 55 -5 55 5 0 11 13 13 29 3 24 0 32 -20 40 -23 11
-24 14 -21 112 3 90 1 103 -16 115 -25 18 -55 18 -55 -1 0 -8 -7 -15 -15 -15
-9 0 -15 9 -15 21 0 17 -3 19 -14 10 -10 -9 -19 -4 -39 23 -21 27 -25 41 -20
70 4 29 2 36 -11 36 -9 0 -16 4 -16 8 0 20 -38 52 -54 46 -10 -4 -18 0 -22 10
-3 9 -11 13 -17 9 -6 -3 -7 -1 -3 6 8 12 -15 41 -33 41 -15 0 -41 -42 -33 -54
11 -18 11 -36 0 -36 -6 0 -5 -6 2 -15 11 -13 7 -15 -23 -15 -19 0 -38 6 -40
13 -4 10 -6 10 -6 0 -1 -7 -12 -13 -26 -13 -18 0 -23 -4 -19 -15 4 -11 -3 -19
-25 -26 -29 -10 -30 -12 -14 -25 11 -8 13 -13 5 -14 -24 0 -91 -50 -91 -67 0
-10 -3 -89 -7 -175 -6 -144 -9 -158 -26 -158 -14 0 -18 -8 -18 -40 0 -33 -3
-40 -20 -40 -11 0 -20 5 -20 10 0 6 -7 10 -15 10 -8 0 -15 -4 -15 -10 0 -5 7
-10 15 -10 18 0 20 -37 3 -42 -9 -3 -13 -33 -15 -89 -1 -58 -6 -84 -14 -84 -7
0 -14 -6 -16 -12 -3 -7 0 -13 6 -13 6 0 11 -9 11 -20 0 -11 -3 -20 -7 -20 -5
0 -8 -14 -9 -30 -1 -20 4 -30 14 -30 10 0 13 -7 8 -22 -3 -13 -6 -26 -6 -30 0
-5 -9 -8 -20 -8 -17 0 -20 -7 -20 -49 0 -27 -7 -62 -15 -77 -18 -35 -20 -165
-3 -182 9 -9 9 -12 0 -12 -9 0 -11 -27 -6 -110 5 -80 4 -110 -4 -110 -7 0 -12
-9 -12 -21 0 -11 -4 -18 -9 -15 -5 3 -11 0 -14 -7 -2 -7 -17 -13 -33 -15 -15
-1 -31 -7 -35 -13 -10 -17 -19 32 -8 52 18 34 11 75 -16 89 -18 10 -25 22 -25
42 0 16 -4 27 -9 23 -18 -11 -23 16 -7 40 9 14 12 25 7 25 -4 0 -11 14 -15 30
-3 18 -12 30 -21 30 -8 0 -15 9 -15 20 0 11 4 20 9 20 15 0 0 114 -15 123 -8
4 -14 15 -14 22 0 8 -5 15 -11 15 -8 0 -10 14 -6 40 3 22 1 40 -3 40 -5 0 -8
8 -8 18 0 18 -12 265 -17 342 -10 147 -17 193 -29 206 -8 7 -16 19 -18 26 -3
8 -12 5 -27 -9 -14 -13 -20 -26 -16 -34 4 -6 8 -76 9 -155 0 -132 -1 -145 -19
-158 -13 -10 -23 -11 -30 -5 -5 6 -12 78 -13 160 -4 143 -5 151 -23 146 -10
-3 -19 -1 -19 5 0 5 -7 16 -15 24 -9 9 -15 34 -15 59 0 25 -5 45 -12 48 -10 4
-10 6 0 6 8 1 9 6 3 19 -28 55 -33 75 -30 124 3 38 1 54 -7 51 -7 -2 -17 10
-23 28 -11 33 -35 201 -32 229 14 136 12 213 -8 284 -12 42 -21 101 -21 131
l0 55 -35 0 -35 0 0 -6225z m5900 5914 c0 -5 -7 -9 -15 -9 -15 0 -20 12 -9 23
8 8 24 -1 24 -14z m-3333 -376 c-2 -21 -4 -4 -4 37 0 41 2 58 4 38 2 -21 2
-55 0 -75z m-1447 21 c0 -11 -5 -14 -16 -10 -9 3 -20 6 -25 6 -6 0 -7 5 -4 10
10 16 45 12 45 -6z m320 -253 c0 -11 4 -21 9 -23 5 -1 11 -18 14 -36 3 -18 1
-30 -4 -26 -5 3 -9 14 -9 25 0 12 -7 19 -18 19 -11 0 -24 11 -30 25 -16 35
-16 35 13 35 18 0 25 -5 25 -19z m4290 -397 c0 -8 -5 -12 -10 -9 -6 4 -8 11
-5 16 9 14 15 11 15 -7z m-3972 -1120 c-3 -14 -5 -12 -10 9 -3 19 -2 25 4 19
6 -6 8 -18 6 -28z m3612 -39 c0 -3 -9 -23 -20 -45 -22 -43 -26 -114 -10 -169
21 -76 85 -131 150 -131 17 0 30 -5 30 -11 0 -21 -97 -4 -140 25 -57 37 -100
116 -100 184 0 56 17 107 44 135 16 16 46 24 46 12z m135 -115 c8 -13 -14 -42
-26 -34 -5 3 -9 14 -9 25 0 20 24 26 35 9z m42 -22 c-3 -8 -6 -5 -6 6 -1 11 2
17 5 13 3 -3 4 -12 1 -19z m1322 -585 c18 -14 52 -32 75 -40 l41 -13 -45 4
c-25 3 -59 12 -75 20 -17 9 -35 16 -41 16 -6 0 -21 12 -35 26 l-24 26 35 -7
c19 -4 50 -19 69 -32z m136 -63 c3 -5 1 -10 -4 -10 -6 0 -11 5 -11 10 0 6 2
10 4 10 3 0 8 -4 11 -10z m614 -62 c6 -16 20 -30 33 -33 16 -4 24 -14 26 -31
2 -27 -6 -29 -59 -14 -63 18 -110 112 -61 122 25 6 50 -13 61 -44z m640 -580
c66 -21 136 -56 155 -77 18 -20 18 -20 -6 -26 -35 -9 -87 -8 -133 2 -30 6 -41
14 -45 33 -6 24 -22 29 -59 19 -19 -5 -26 28 -11 46 15 18 51 19 99 3z m359
-120 c4 -22 -21 -24 -38 -4 -6 8 -24 17 -38 19 -15 3 -5 4 23 3 39 -1 51 -5
53 -18z m51 -315 c0 -49 -2 -55 -11 -35 -6 12 -17 22 -25 22 -16 0 -17 11 -1
45 21 46 38 31 37 -32z m-90 9 c8 -18 21 -32 28 -32 15 0 16 -9 4 -28 -6 -10
-13 -3 -25 23 -12 24 -23 35 -32 31 -10 -4 -14 2 -14 20 0 34 21 27 39 -14z
m164 11 c-33 -6 -28 -23 7 -23 17 0 30 -4 30 -10 0 -5 -16 -10 -35 -10 -33 0
-35 -2 -25 -20 7 -13 7 -20 1 -20 -17 0 -33 40 -27 66 5 20 12 24 39 23 23 -1
26 -3 10 -6z m73 -33 c0 -16 -3 -30 -8 -30 -4 0 -8 14 -8 30 0 17 4 30 8 30 5
0 8 -13 8 -30z m-51 -40 c-3 -5 -11 -10 -16 -10 -6 0 -7 5 -4 10 3 6 11 10 16
10 6 0 7 -4 4 -10z m-4604 -72 c-6 -38 -9 -42 -51 -56 -25 -8 -51 -16 -57 -18
-8 -2 -13 -21 -13 -50 0 -57 -18 -122 -40 -149 -9 -11 -23 -35 -30 -53 -15
-39 -43 -56 -76 -48 -47 12 -50 84 -7 163 13 25 24 33 45 33 27 0 28 1 28 58
0 47 4 62 25 85 14 15 31 27 38 27 7 0 19 6 25 13 7 6 36 17 65 23 29 7 52 12
53 13 0 0 -2 -18 -5 -41z m1790 -77 c4 -38 0 -151 -5 -160 -10 -15 -41 -14
-54 2 -6 6 -13 29 -17 49 -6 32 -3 40 21 64 17 15 28 34 26 45 -2 14 1 17 12
13 9 -3 16 -9 17 -13z m-5671 -1211 c0 -5 -7 -10 -15 -10 -8 0 -15 5 -15 10 0
6 7 10 15 10 8 0 15 -4 15 -10z m655 -121 c57 9 85 9 183 -5 l43 -5 -24 -20
c-21 -16 -47 -20 -178 -24 -182 -7 -319 -19 -374 -34 -22 -6 -64 -11 -92 -11
-52 0 -53 0 -41 25 8 17 22 26 47 31 20 3 56 12 81 19 81 25 134 30 215 22 48
-5 103 -4 140 2z m-565 -119 c0 -5 -15 -10 -32 -9 -31 1 -32 1 -8 9 35 11 40
11 40 0z m6563 -761 c7 -27 -1 -49 -19 -49 -9 0 -14 12 -14 35 0 39 24 49 33
14z m-5265 -2431 c3 -14 -3 -18 -27 -18 -17 0 -31 -4 -31 -10 0 -5 -15 -9 -32
-9 -18 1 -25 3 -15 6 19 5 22 18 7 28 -24 15 -6 23 42 22 41 -2 53 -6 56 -19z
m1842 -2828 c0 -5 -4 -10 -10 -10 -5 0 -10 5 -10 10 0 6 5 10 10 10 6 0 10 -4
10 -10z m-1670 -115 c0 -34 -1 -35 -40 -35 -22 0 -40 -4 -40 -10 0 -6 -40 -10
-100 -10 -60 0 -100 -4 -100 -10 0 -5 -18 -10 -40 -10 -22 0 -40 -4 -40 -10 0
-5 -11 -10 -25 -10 -14 0 -25 -4 -25 -10 0 -5 -4 -10 -8 -10 -4 0 -9 18 -10
40 -2 29 2 42 13 46 8 3 15 13 15 20 0 8 7 17 16 21 20 7 64 -16 64 -34 0 -21
79 -14 112 11 24 17 31 18 53 6 29 -16 75 -1 75 25 0 11 11 15 40 15 39 0 40
-1 40 -35z m-1560 -17 c0 -21 -6 -31 -20 -35 -11 -3 -20 -11 -20 -18 0 -18
-23 -25 -86 -25 -30 0 -54 -4 -54 -8 0 -5 13 -7 30 -4 18 3 30 0 30 -7 0 -6 6
-11 13 -11 8 0 19 -16 24 -35 16 -50 -9 -115 -44 -115 -28 0 -53 21 -53 44 0
9 -6 16 -14 16 -8 0 -17 15 -20 35 -7 37 -1 59 14 50 5 -3 10 5 12 17 2 18 11
24 36 26 20 2 32 9 32 18 0 8 -5 14 -11 14 -13 0 -8 31 6 31 6 1 16 6 24 12
26 22 56 33 79 29 17 -3 22 -11 22 -34z m1110 -68 c0 -5 -5 -10 -11 -10 -5 0
-7 5 -4 10 3 6 8 10 11 10 2 0 4 -4 4 -10z m-54 -55 c4 -11 21 -15 55 -15 48
0 49 -1 49 -30 0 -29 -13 -40 -25 -20 -14 22 -43 10 -50 -21 -5 -23 -10 -28
-18 -20 -14 14 -147 15 -147 1 0 -5 6 -10 14 -10 8 0 17 -4 20 -8 7 -12 -36
-72 -51 -72 -7 0 -13 -4 -13 -10 0 -5 -5 -10 -10 -10 -6 0 -25 -15 -43 -33
-29 -30 -32 -39 -29 -79 4 -43 2 -46 -27 -56 -33 -12 -52 1 -32 21 13 13 15
47 2 47 -13 0 -21 53 -10 66 5 6 7 19 3 28 -3 9 -1 16 5 16 6 0 11 -9 11 -20
0 -11 5 -20 10 -20 6 0 10 7 10 15 0 8 9 15 19 15 15 0 21 8 23 32 2 22 9 34
21 36 18 4 57 36 57 47 0 3 -8 5 -17 5 -17 1 -17 1 0 14 11 9 32 12 55 9 28
-4 42 0 60 17 12 12 20 26 16 31 -9 15 4 39 21 39 9 0 18 -7 21 -15z m2304
-435 c0 -12 -28 -25 -36 -17 -9 9 6 27 22 27 8 0 14 -5 14 -10z m-2710 -56 c0
-8 -11 -20 -25 -26 -14 -6 -25 -17 -25 -25 0 -17 -14 -17 -29 1 -9 11 -7 19
13 39 38 38 66 43 66 11z m2653 -19 c-15 -14 -32 -25 -38 -26 -22 -3 -50 3
-59 12 -15 14 4 26 48 33 21 4 46 10 55 15 28 17 25 -9 -6 -34z m362 35 c3 -5
1 -10 -4 -10 -6 0 -11 5 -11 10 0 6 2 10 4 10 3 0 8 -4 11 -10z"/>
<path d="M5860 11870 c0 -5 5 -10 10 -10 6 0 10 5 10 10 0 6 -4 10 -10 10 -5
0 -10 -4 -10 -10z"/>
<path d="M10340 11851 c0 -6 5 -13 10 -16 6 -3 10 1 10 9 0 9 -4 16 -10 16 -5
0 -10 -4 -10 -9z"/>
<path d="M5968 11589 c-5 -72 -3 -80 16 -73 9 3 11 21 8 62 -6 80 -19 86 -24
11z"/>
<path d="M10318 11639 c-2 -6 -36 -11 -81 -12 -70 -1 -77 -3 -78 -22 0 -11 -3
-14 -6 -7 -8 21 -23 13 -23 -13 0 -13 -12 -50 -26 -82 -24 -52 -26 -70 -26
-178 0 -73 -4 -123 -10 -126 -7 -4 -12 -69 -14 -162 -4 -174 -8 -218 -24 -246
-5 -11 -10 -56 -10 -101 0 -49 -8 -113 -20 -160 -18 -71 -26 -120 -34 -200 -1
-14 -11 -38 -21 -54 -17 -25 -20 -54 -23 -231 l-4 -202 27 -7 c17 -4 35 -2 49
7 33 21 70 28 221 39 222 17 564 10 590 -12 6 -5 29 -8 51 -7 36 1 45 -4 74
-36 17 -20 38 -37 44 -37 7 0 25 13 40 29 23 24 26 33 17 48 -6 12 -10 91 -10
189 0 93 -2 196 -4 229 -3 33 -5 68 -6 78 -1 11 -7 17 -18 15 -11 -2 -19 6
-24 22 -4 14 -7 19 -8 12 -1 -10 -4 -10 -16 2 -8 8 -15 19 -15 23 0 5 -29 68
-65 140 -36 72 -65 138 -65 147 0 9 -4 16 -10 16 -5 0 -10 13 -10 28 0 17 -8
33 -21 42 -26 18 -70 115 -63 135 4 8 1 15 -5 15 -7 0 -9 9 -5 25 3 14 1 32
-6 40 -6 8 -9 23 -5 34 7 23 -22 81 -41 81 -14 0 -34 44 -34 74 0 27 -31 59
-37 39 -8 -24 -43 5 -43 35 0 16 -8 32 -20 40 -11 7 -20 17 -20 23 0 17 -34
46 -62 53 -40 9 -52 39 -34 79 16 35 26 137 13 137 -5 0 -15 7 -23 15 -18 17
-51 20 -56 4z m262 -463 c0 -3 -4 -8 -10 -11 -5 -3 -10 -1 -10 4 0 6 5 11 10
11 6 0 10 -2 10 -4z"/>
<path d="M3519 11628 c-3 -35 4 -83 12 -86 5 -2 9 -12 9 -23 0 -12 7 -19 20
-19 14 0 20 7 20 23 0 34 -21 101 -34 109 -16 11 -26 10 -27 -4z"/>
<path d="M5930 11630 c0 -5 5 -10 10 -10 6 0 10 5 10 10 0 6 -4 10 -10 10 -5
0 -10 -4 -10 -10z"/>
<path d="M2760 11531 c0 -17 5 -31 10 -31 6 0 10 9 10 20 0 11 0 23 1 27 0 4
-4 9 -10 11 -6 2 -11 -10 -11 -27z"/>
<path d="M5823 11463 c-15 -5 -17 -23 -4 -23 5 0 11 7 15 15 3 8 4 15 3 14 -1
0 -8 -3 -14 -6z"/>
<path d="M12796 11333 c-3 -3 -6 -46 -6 -94 0 -48 -4 -91 -10 -94 -5 -3 -9
-25 -8 -48 l1 -42 7 45 c5 28 7 2 4 -70 -2 -63 -6 -127 -10 -142 -5 -22 -3
-28 10 -28 13 0 16 11 16 60 0 33 4 60 10 60 6 0 10 -9 10 -19 0 -11 5 -23 10
-26 6 -3 10 -21 10 -40 0 -28 -5 -35 -30 -44 -17 -6 -44 -8 -60 -4 -23 4 -30
2 -30 -11 0 -9 -8 -16 -18 -16 -23 0 -45 -36 -37 -61 5 -15 2 -19 -14 -19 -12
0 -21 -1 -22 -2 0 -2 -3 -46 -6 -98 -3 -61 -10 -101 -19 -111 -15 -17 -17 -62
-4 -94 5 -13 3 -26 -6 -36 -12 -13 -10 -19 12 -40 18 -16 28 -20 31 -11 3 6
11 12 19 12 20 0 44 60 44 110 0 41 5 46 29 31 9 -6 12 -22 9 -49 -3 -37 -1
-41 23 -46 15 -3 43 0 63 5 20 6 46 7 56 4 20 -6 20 0 20 384 l0 390 -22 3
c-21 3 -22 9 -23 68 0 51 -3 65 -15 65 -8 0 -20 4 -26 7 -6 4 -14 5 -18 1z
m44 -63 c0 -5 -9 -10 -20 -10 -11 0 -20 5 -20 10 0 6 9 10 20 10 11 0 20 -4
20 -10z m18 -221 c-2 -6 -8 -10 -13 -10 -5 0 -11 4 -13 10 -2 6 4 11 13 11 9
0 15 -5 13 -11z m-178 -559 c0 -5 -4 -10 -10 -10 -5 0 -10 5 -10 10 0 6 5 10
10 10 6 0 10 -4 10 -10z"/>
<path d="M5881 11284 c0 -11 3 -14 6 -6 3 7 2 16 -1 19 -3 4 -6 -2 -5 -13z"/>
<path d="M3202 10905 c0 -16 2 -22 5 -12 2 9 2 23 0 30 -3 6 -5 -1 -5 -18z"/>
<path d="M10990 10780 c0 -33 4 -60 10 -60 6 0 10 27 10 60 0 33 -4 60 -10 60
-6 0 -10 -27 -10 -60z"/>
<path d="M641 10804 c0 -11 3 -14 6 -6 3 7 2 16 -1 19 -3 4 -6 -2 -5 -13z"/>
<path d="M12688 9468 c-58 -3 -141 -13 -183 -22 -43 -9 -100 -16 -129 -16 -28
-1 -69 -7 -91 -15 -22 -8 -49 -15 -61 -15 -11 0 -38 -17 -60 -37 -21 -21 -52
-43 -68 -49 -34 -12 -63 -47 -72 -84 -3 -14 -10 -43 -14 -65 -5 -22 -9 -117
-10 -212 0 -174 -12 -264 -38 -295 -11 -13 -24 -16 -57 -11 -38 5 -112 -10
-125 -26 -7 -8 -99 -42 -132 -48 -18 -3 -45 4 -78 21 -35 18 -65 26 -102 26
-43 0 -72 10 -167 57 -95 47 -123 56 -170 57 -35 1 -66 8 -82 19 -25 17 -57
76 -58 107 0 21 -20 112 -25 118 -3 2 -42 4 -88 4 -69 0 -95 5 -153 29 -70 29
-70 30 -295 31 -161 0 -249 -4 -310 -14 -84 -15 -179 -47 -204 -67 -9 -7 -15
-54 -20 -133 -4 -68 -12 -151 -18 -184 -10 -58 -10 -63 12 -85 15 -16 24 -20
27 -11 6 17 58 15 72 -2 8 -10 40 -16 94 -19 108 -6 227 -43 270 -85 18 -18
41 -32 50 -32 9 0 36 -17 58 -37 38 -34 48 -38 97 -38 42 0 58 -5 71 -21 9
-11 30 -28 47 -38 41 -24 59 -53 44 -71 -6 -8 -10 -29 -8 -47 3 -28 8 -34 33
-38 39 -7 47 -51 15 -85 -18 -20 -19 -25 -8 -50 12 -27 11 -30 -48 -84 -34
-31 -74 -76 -89 -101 -16 -25 -39 -56 -52 -70 -58 -61 -91 -108 -101 -142 -6
-20 -24 -57 -41 -81 -18 -24 -34 -61 -38 -83 -3 -21 -11 -42 -17 -46 -8 -5 -7
-13 2 -28 18 -30 16 -97 -5 -108 -14 -8 -17 -26 -16 -110 l1 -100 -38 -17
c-48 -21 -58 -54 -34 -110 10 -24 14 -54 11 -77 -4 -31 -1 -40 14 -48 26 -14
24 -53 -4 -115 -27 -57 -41 -136 -38 -212 0 -28 -3 -54 -9 -58 -5 -3 -10 -17
-10 -31 0 -13 -13 -48 -30 -77 -16 -30 -30 -61 -30 -69 0 -9 -5 -18 -10 -20
-6 -2 -14 -29 -17 -61 -4 -37 -15 -71 -29 -93 -13 -19 -24 -48 -24 -64 0 -16
-4 -31 -9 -34 -5 -4 -9 -25 -9 -49 1 -41 -19 -88 -49 -113 -7 -6 -13 -35 -14
-65 -2 -40 -9 -62 -26 -86 -16 -20 -23 -42 -21 -60 3 -25 7 -28 46 -31 44 -3
60 -22 18 -22 -32 0 -76 -17 -76 -29 0 -5 9 -11 20 -14 24 -6 26 -36 5 -77
-15 -29 -15 -30 10 -30 27 0 35 -26 13 -48 -6 -6 -9 -14 -6 -18 11 -10 41 4
77 36 52 46 51 36 -2 -18 -26 -26 -47 -57 -47 -68 0 -11 -7 -30 -16 -42 -14
-21 -14 -23 12 -32 15 -6 37 -10 48 -9 27 1 66 -11 66 -21 0 -4 -9 -10 -20
-13 -31 -8 -24 -27 10 -27 27 0 29 -2 21 -19 -6 -10 -21 -21 -33 -25 -13 -3
-34 -15 -48 -25 -20 -16 -23 -22 -12 -32 17 -18 15 -39 -5 -61 -14 -16 -15
-18 0 -18 9 0 19 5 22 11 21 32 42 -28 23 -64 -7 -14 -5 -22 9 -33 17 -13 17
-13 -2 -14 -27 0 -76 -63 -75 -97 1 -15 -3 -46 -8 -68 -7 -35 -11 -40 -32 -37
l-25 2 29 -25 c22 -19 40 -25 76 -25 36 0 53 -6 74 -25 21 -20 33 -23 59 -18
29 6 31 5 19 -10 -8 -9 -12 -26 -10 -38 l3 -21 25 20 c19 15 22 23 13 33 -9
11 -7 14 12 14 20 0 22 -3 13 -20 -6 -11 -26 -37 -45 -58 -19 -21 -33 -43 -30
-50 6 -19 58 -31 79 -18 40 25 35 9 -11 -34 -34 -31 -52 -58 -59 -86 -13 -52
3 -60 64 -31 51 25 57 17 13 -22 -17 -15 -29 -30 -26 -32 2 -2 33 0 68 5 35 5
65 7 67 6 10 -9 -28 -49 -63 -67 -43 -22 -55 -34 -55 -59 0 -15 24 -28 106
-59 l31 -11 -28 -29 c-34 -34 -36 -50 -9 -75 11 -10 20 -25 20 -33 0 -10 4
-12 13 -4 9 8 12 -1 14 -39 1 -27 10 -62 20 -79 13 -22 15 -33 6 -38 -6 -4
-10 -23 -8 -42 2 -19 4 -39 4 -43 1 -4 25 -5 54 -1 47 6 51 5 37 -9 -8 -9 -40
-22 -70 -30 -60 -16 -73 -31 -41 -53 17 -13 20 -22 14 -59 -5 -40 -3 -47 23
-73 57 -56 78 -92 54 -92 -13 0 -13 -35 0 -58 5 -9 14 -29 20 -45 5 -15 17
-30 27 -34 35 -13 55 -44 48 -71 -4 -15 -6 -36 -6 -47 8 -132 8 -129 -24 -135
-25 -4 -30 -10 -33 -38 -3 -25 -12 -39 -44 -59 l-40 -27 26 -9 c14 -5 26 -14
26 -20 0 -6 12 -23 27 -39 22 -24 24 -29 12 -44 -14 -17 -13 -87 2 -116 8 -15
5 -18 -17 -18 -22 0 -25 -3 -21 -22 4 -12 1 -28 -6 -36 -9 -12 -4 -20 26 -46
44 -37 46 -44 10 -48 -25 -3 -26 -4 -10 -20 23 -22 23 -70 1 -61 -14 5 -16 1
-10 -28 4 -24 1 -41 -9 -54 -8 -11 -15 -37 -15 -58 0 -30 -4 -40 -20 -44 -28
-8 -25 -29 10 -60 17 -14 30 -32 30 -38 0 -7 7 -18 15 -25 21 -17 9 -31 -21
-24 -21 5 -24 3 -24 -20 0 -15 11 -44 25 -64 14 -20 25 -46 25 -58 0 -43 -13
-84 -26 -84 -10 0 -14 -13 -14 -44 0 -50 -20 -76 -45 -56 -12 10 -13 8 -6 -17
5 -15 14 -41 20 -57 18 -46 -2 -52 -38 -10 -26 29 -35 34 -44 24 -9 -10 -9
-14 1 -17 6 -3 12 -10 12 -17 0 -7 11 -22 25 -34 26 -23 33 -48 14 -54 -6 -2
-34 18 -61 44 -28 27 -54 46 -57 43 -3 -4 -6 -23 -7 -43 -1 -20 -3 -41 -3 -47
-1 -5 -8 3 -16 19 -8 15 -13 32 -10 36 10 17 -9 41 -45 60 -21 11 -40 25 -42
32 -4 12 -28 3 -28 -12 0 -5 7 -16 16 -25 9 -9 20 -44 24 -83 9 -64 11 -69 69
-129 34 -34 61 -67 61 -72 0 -15 -33 -14 -48 1 -8 8 -15 8 -27 -2 -10 -8 -15
-9 -15 -1 0 6 -6 11 -14 11 -8 0 -16 6 -19 14 -3 7 -25 16 -49 19 -24 3 -52 9
-62 13 -16 6 -18 3 -14 -25 9 -59 -16 -50 -67 25 -31 46 -60 56 -50 17 3 -15
19 -42 35 -61 33 -40 30 -64 -4 -33 -12 12 -25 21 -29 21 -13 0 -7 -48 8 -60
8 -7 15 -24 15 -37 0 -22 -2 -24 -15 -13 -8 7 -15 20 -15 29 0 21 -55 75 -68
67 -6 -4 -4 -22 5 -47 17 -51 10 -83 -11 -53 -8 10 -17 16 -21 12 -4 -3 3 -16
14 -27 14 -14 21 -34 21 -59 0 -27 7 -44 26 -61 14 -13 32 -38 41 -55 9 -17
24 -37 34 -44 10 -7 24 -18 31 -26 25 -24 63 -40 97 -41 29 0 38 -6 50 -30 9
-16 21 -34 26 -38 6 -5 -2 -6 -17 -3 -17 4 -28 2 -28 -5 0 -30 -89 -64 -104
-40 -12 18 -24 12 -19 -9 3 -11 13 -20 22 -20 9 0 12 -3 6 -8 -5 -4 -10 -14
-10 -22 0 -8 -7 -15 -15 -15 -19 0 -62 84 -57 112 2 12 -1 20 -7 17 -20 -7
-30 5 -83 100 -46 80 -49 86 -71 109 -11 12 -24 31 -29 43 -8 22 -98 104 -113
104 -4 0 -7 -25 -6 -56 0 -32 -4 -64 -11 -73 -7 -9 -12 -20 -13 -26 0 -5 4 -4
9 4 5 7 14 10 20 6 13 -8 5 -87 -12 -120 -7 -13 -7 -20 2 -23 15 -5 41 -67 41
-101 1 -14 7 -48 14 -76 12 -44 11 -52 -6 -81 -14 -25 -16 -37 -8 -58 9 -24 7
-26 -17 -26 -14 0 -34 9 -44 21 -10 11 -23 18 -29 14 -5 -3 -13 2 -16 12 -3
10 -19 48 -35 86 -16 37 -29 84 -29 105 0 76 -32 82 -43 7 -5 -33 -1 -51 25
-100 74 -143 76 -151 62 -189 -8 -20 -24 -11 -24 14 0 11 -23 64 -50 117 -69
134 -69 135 -81 127 -8 -4 -7 -10 0 -17 6 -6 11 -19 11 -29 0 -10 14 -47 30
-81 35 -75 37 -90 11 -116 -19 -19 -19 -21 4 -113 19 -77 21 -96 11 -113 -20
-32 -48 -193 -34 -201 10 -7 11 -64 0 -64 -4 0 -12 4 -17 9 -12 10 -104 35
-109 30 -3 -2 -7 -16 -11 -32 l-7 -27 1781 0 1781 0 0 4734 0 4734 -52 4 c-29
1 -101 0 -160 -4z m-2400 -8273 c0 -14 -5 -24 -10 -23 -5 2 -9 7 -9 11 1 4 1
14 1 22 0 8 4 15 9 15 5 0 9 -11 9 -25z m-427 -387 c9 -7 37 -46 63 -86 40
-60 46 -75 36 -87 -7 -8 -21 -15 -31 -15 -21 0 -26 -16 -7 -22 7 -3 8 -9 3
-18 -7 -11 -10 -11 -19 1 -6 8 -17 14 -23 15 -44 3 -44 4 -33 24 6 11 16 19
22 17 6 -1 13 4 16 12 3 10 0 12 -14 7 -15 -6 -16 -5 -7 5 7 7 9 18 4 28 -5 9
-12 35 -16 59 -4 23 -11 42 -16 42 -5 0 -9 7 -9 15 0 18 11 19 31 3z m147
-128 c10 -17 10 -20 -3 -20 -8 0 -15 2 -15 4 0 2 -3 11 -6 20 -9 23 9 20 24
-4z m-341 -152 c-3 -8 -6 -5 -6 6 -1 11 2 17 5 13 3 -3 4 -12 1 -19z m203 2
c0 -5 -6 -10 -14 -10 -8 0 -18 5 -21 10 -3 6 3 10 14 10 12 0 21 -4 21 -10z
m-58 -37 c38 -18 38 -19 34 -65 -5 -43 -23 -88 -36 -88 -3 0 -17 18 -32 39
-30 42 -36 89 -15 110 10 10 8 11 -8 6 -16 -6 -17 -5 -5 4 19 14 17 14 62 -6z
m-83 -105 c1 -10 -3 -18 -9 -18 -13 0 -24 46 -15 67 7 16 9 15 15 -7 5 -14 8
-33 9 -42z"/>
<path d="M7920 9360 c0 -8 24 -20 41 -20 6 0 8 4 5 9 -8 12 -46 21 -46 11z"/>
<path d="M7985 9339 c-7 -10 21 -38 38 -39 5 0 21 -9 36 -19 16 -11 50 -21 86
-24 61 -5 151 -24 126 -26 -10 -1 -11 -4 -2 -15 17 -20 49 -26 55 -10 10 25
-159 114 -218 114 -17 1 -42 7 -56 15 -30 17 -56 19 -65 4z"/>
<path d="M10715 8010 c-3 -5 -1 -10 4 -10 6 0 11 5 11 10 0 6 -2 10 -4 10 -3
0 -8 -4 -11 -10z"/>
<path d="M7855 7271 c-47 -8 -72 -23 -125 -72 -70 -63 -89 -137 -92 -349 -2
-145 11 -191 77 -270 30 -35 57 -72 60 -81 3 -9 27 -25 52 -34 46 -18 50 -18
168 5 98 18 191 47 214 66 2 2 -1 10 -8 18 -8 9 -10 43 -8 102 3 49 1 96 -4
105 -11 21 -15 49 -24 140 -5 59 -14 88 -41 135 -18 32 -51 96 -73 141 -23 45
-50 87 -60 93 -21 11 -73 11 -136 1z m-68 -446 c4 -15 -10 -32 -34 -39 -25 -8
-34 2 -27 32 4 15 13 20 32 19 14 -1 27 -7 29 -12z"/>
<path d="M5315 6869 c-61 -17 -96 -75 -111 -184 -3 -27 -11 -59 -17 -69 -5
-11 -11 -40 -13 -65 -2 -25 -6 -80 -10 -122 -5 -60 -3 -83 10 -108 11 -21 16
-51 15 -87 -2 -52 0 -57 32 -85 19 -16 37 -29 41 -29 4 0 16 -10 27 -21 17
-19 28 -21 74 -16 29 3 97 16 151 28 89 21 100 27 127 60 53 67 105 216 95
268 -3 14 -2 53 3 86 9 55 7 65 -20 124 -16 35 -29 72 -29 83 0 11 -15 34 -34
52 -85 79 -125 96 -228 95 -46 0 -97 -5 -113 -10z m223 -411 c4 -19 -36 -44
-49 -31 -4 4 -6 19 -2 31 7 27 46 27 51 0z"/>
<path d="M9010 6050 c-57 -10 -148 -57 -167 -87 -9 -13 -22 -23 -29 -23 -8 0
-14 -4 -14 -10 0 -5 23 -10 51 -10 31 0 48 -4 44 -10 -3 -5 -22 -10 -41 -10
-41 0 -44 -16 -6 -33 25 -11 22 -12 -38 -15 -36 -1 -79 -9 -97 -17 -17 -8 -36
-15 -42 -15 -6 0 -12 -8 -12 -17 -1 -10 -2 -24 -3 -32 0 -8 -21 -21 -46 -30
-25 -9 -56 -26 -68 -38 -13 -14 -34 -23 -52 -23 -17 0 -47 -7 -68 -16 -36 -15
-36 -16 -17 -30 12 -9 19 -24 17 -35 -3 -17 0 -20 17 -14 26 8 27 -5 2 -27
-10 -8 -20 -20 -22 -25 -2 -5 -25 -21 -51 -36 -27 -15 -48 -32 -48 -37 0 -6
20 -10 44 -10 58 0 66 -15 19 -36 l-38 -17 45 -11 c26 -7 40 -15 33 -19 -6 -4
-73 -9 -147 -12 -75 -2 -144 -9 -155 -14 -11 -6 -43 -16 -71 -22 l-51 -11 3
-41 c3 -36 7 -42 36 -51 34 -12 34 -26 1 -26 -10 0 -39 -7 -65 -16 -50 -17
-71 -11 -40 12 12 9 16 17 10 23 -12 12 -124 20 -124 9 0 -4 -9 -8 -19 -8 -11
0 -23 -4 -26 -10 -3 -5 -15 -10 -26 -10 -45 0 -35 -74 13 -94 31 -14 31 -14 7
-21 -13 -4 -54 -8 -91 -8 -57 0 -74 4 -106 27 -59 41 -94 34 -159 -33 -42 -43
-45 -87 -8 -101 33 -13 32 -31 -2 -28 -27 3 -28 1 -31 -47 -2 -27 -3 -67 -4
-87 0 -21 -3 -38 -7 -38 -13 0 -51 -41 -51 -55 0 -7 14 -26 30 -42 17 -15 30
-36 30 -46 0 -9 11 -22 24 -27 26 -9 63 -56 53 -66 -3 -3 -14 0 -26 8 -15 9
-23 10 -32 1 -9 -9 -4 -21 20 -50 40 -48 41 -73 3 -73 -15 0 -34 -6 -42 -12
-12 -11 -12 -10 -1 5 11 14 11 20 1 32 -7 8 -18 15 -24 15 -7 0 -23 12 -37 26
-23 24 -28 25 -92 19 -37 -3 -67 -2 -66 2 4 22 -2 43 -12 43 -19 0 -3 -95 21
-128 12 -17 19 -35 16 -41 -4 -6 4 -36 18 -66 14 -29 26 -59 26 -65 0 -26 -78
53 -105 106 -28 56 -75 97 -104 92 -11 -2 -14 -17 -12 -63 1 -40 -3 -67 -12
-80 -14 -19 -16 -18 -43 15 -16 19 -37 42 -46 52 -10 10 -13 20 -8 23 6 4 10
13 10 21 0 11 -14 14 -60 14 -53 0 -60 -2 -60 -20 0 -11 -4 -20 -9 -20 -5 0
-11 -13 -14 -30 -11 -50 -24 -33 -19 24 3 33 0 56 -7 60 -6 4 -11 25 -11 47 0
29 -9 52 -34 88 -41 57 -55 134 -34 181 7 17 16 30 20 30 5 0 8 9 8 20 0 13 5
18 16 13 12 -4 14 0 8 20 -6 27 13 57 35 57 6 0 11 7 11 15 0 8 -4 15 -10 15
-5 0 -10 -3 -10 -7 0 -16 -66 -12 -96 7 -30 17 -65 25 -152 34 -40 4 -93 -6
-92 -18 3 -17 -25 -26 -80 -26 -53 -1 -90 -16 -90 -38 0 -20 -20 -23 -42 -8
-12 9 -30 16 -39 16 -10 0 -19 5 -21 11 -4 11 -382 14 -414 3 -87 -31 -104
-44 -115 -89 -6 -24 -16 -49 -23 -54 -6 -5 -42 -11 -81 -15 -38 -3 -88 -8
-110 -11 l-40 -6 33 21 c43 29 40 38 -10 33 -245 -23 -306 -31 -333 -43 -11
-5 -37 -16 -57 -24 -21 -8 -38 -21 -38 -29 0 -8 24 -24 54 -37 l54 -22 72 21
c65 18 71 18 68 3 -2 -9 -13 -21 -26 -27 -12 -5 -22 -16 -22 -24 0 -10 10 -12
41 -8 48 6 49 -10 1 -33 -51 -24 -37 -44 31 -48 40 -2 57 -7 54 -15 -2 -7 -14
-14 -28 -15 -40 -6 -49 -20 -43 -65 5 -36 2 -47 -20 -72 -38 -43 -31 -69 18
-72 48 -3 53 -7 36 -38 -8 -16 -16 -21 -20 -14 -5 6 -21 8 -44 4 -46 -9 -43
-12 20 -24 37 -7 57 -6 83 5 19 8 36 12 39 9 3 -2 -3 -7 -12 -11 -30 -11 -38
-41 -21 -73 17 -34 20 -87 5 -96 -13 -8 -13 -145 0 -145 6 0 13 7 16 15 4 9
14 13 23 11 22 -7 33 2 58 54 28 55 45 83 57 92 5 3 1 14 -9 24 -17 17 -17 17
-11 -4 5 -13 3 -22 -3 -22 -6 0 -11 6 -11 13 0 7 -3 8 -8 2 -12 -16 -32 -16
-38 0 -10 24 4 63 32 89 15 13 24 30 22 37 -8 23 50 63 72 49 14 -9 12 -13
-43 -89 -22 -30 -35 -51 -30 -48 6 4 16 1 22 -7 7 -8 21 -12 31 -9 26 7 26 -9
0 -32 -11 -10 -20 -23 -20 -28 0 -6 -12 -26 -27 -45 -30 -40 -52 -95 -52 -132
0 -24 0 -24 14 -6 16 21 35 13 35 -15 0 -12 7 -19 20 -19 16 0 20 -7 20 -34 0
-19 5 -38 10 -41 12 -7 14 -36 3 -34 -23 4 -23 -3 1 -22 l27 -21 39 43 c36 40
65 112 54 131 -10 16 -25 8 -35 -19 -13 -32 -24 -15 -15 21 6 24 57 53 74 42
12 -7 82 60 82 79 0 15 64 68 86 71 23 3 16 -28 -16 -75 -17 -24 -30 -52 -30
-63 0 -12 -7 -18 -23 -18 -32 0 -48 -16 -92 -89 -44 -74 -58 -148 -31 -170 9
-7 16 -22 16 -33 0 -29 23 -16 31 18 4 16 14 47 23 69 8 22 15 50 16 62 0 28
21 76 37 86 7 4 13 15 13 23 0 8 19 24 43 34 61 28 70 26 52 -12 -8 -18 -21
-68 -29 -111 -9 -43 -22 -89 -29 -104 -14 -25 -14 -24 -20 32 -6 59 -19 86
-31 66 -4 -6 -9 -44 -11 -84 -2 -40 -11 -87 -20 -103 -16 -31 -21 -94 -6 -94
5 0 15 10 23 22 14 20 15 14 22 -82 6 -95 16 -127 36 -115 4 2 10 57 13 122 6
130 13 157 34 149 15 -6 23 9 48 96 14 47 15 62 5 93 -10 31 -9 44 5 80 18 48
17 101 -2 98 -16 -3 -6 68 12 87 13 12 15 9 15 -27 0 -23 5 -45 10 -48 6 -3
10 -15 10 -26 0 -11 10 -39 22 -62 12 -23 21 -47 20 -53 -1 -6 7 -19 19 -30
20 -18 21 -18 34 -1 13 18 14 17 20 -2 8 -25 56 -29 75 -6 13 16 16 167 4 187
-4 6 -16 -1 -30 -18 -18 -24 -25 -27 -36 -16 -19 19 -13 116 10 160 21 41 56
57 50 24 -2 -10 3 -26 10 -35 7 -9 17 -44 22 -78 5 -35 17 -71 28 -83 23 -26
42 -70 42 -97 0 -11 5 -17 10 -14 6 3 10 19 10 34 0 30 20 81 33 81 4 0 7 -9
7 -20 0 -11 -4 -20 -8 -20 -14 0 -9 -333 4 -347 16 -17 23 -7 30 48 4 27 14
54 22 61 13 11 14 11 8 -1 -6 -9 -5 -12 5 -9 11 4 14 24 13 84 -1 43 -5 94 -9
112 -5 21 -4 32 4 32 6 0 11 -9 11 -19 0 -11 11 -33 25 -49 18 -22 21 -32 13
-40 -9 -9 -6 -12 11 -12 14 0 25 7 28 19 3 14 13 19 31 18 21 -2 28 3 30 21 6
38 22 24 22 -18 0 -29 4 -40 15 -40 16 0 21 -18 29 -108 8 -86 16 -112 33
-112 13 0 15 15 10 103 -4 56 -9 117 -12 136 -2 18 -2 38 2 44 9 14 29 -59 37
-135 9 -81 21 -103 35 -65 6 16 11 35 11 43 0 8 5 14 10 14 16 0 12 -50 -5
-66 -16 -17 -12 -55 10 -87 11 -16 13 -15 18 11 3 16 3 39 0 51 -4 16 -1 21
14 21 17 0 19 6 17 48 -1 26 1 85 5 131 6 81 7 84 24 67 9 -10 15 -22 12 -27
-4 -5 -1 -9 5 -9 7 0 9 -8 5 -20 -4 -12 -3 -26 2 -33 12 -17 10 -221 -2 -227
-5 -3 -11 5 -13 17 -2 12 -10 27 -18 34 -13 11 -14 1 -12 -77 2 -70 6 -89 18
-90 8 -1 19 -2 24 -3 5 0 4 -7 -1 -13 -6 -8 -7 -58 -2 -123 10 -160 29 -218
68 -208 10 3 23 14 29 26 10 22 11 22 12 -3 1 -36 38 -112 52 -108 6 2 18 26
25 53 21 70 1 171 -62 310 -8 17 -17 41 -21 55 -3 14 -16 38 -28 55 -19 27
-21 44 -22 243 -2 118 1 210 5 206 5 -5 14 -31 21 -59 7 -27 20 -61 29 -75 9
-14 22 -38 29 -55 11 -29 12 -27 8 23 -4 59 8 75 31 42 8 -12 21 -19 27 -17 7
3 18 -4 24 -14 7 -10 21 -19 31 -19 35 0 44 27 49 141 3 71 8 109 16 109 6 0
12 -14 13 -30 1 -17 9 -40 18 -52 8 -13 15 -40 15 -61 0 -36 23 -97 37 -97 3
0 12 8 19 17 14 20 21 17 26 -12 1 -11 5 -22 8 -25 13 -13 30 -52 30 -68 0
-27 29 -62 51 -62 25 0 25 19 -7 147 -23 96 -24 106 -10 122 20 22 21 38 2 22
-20 -17 -28 12 -10 38 9 12 16 48 17 90 1 38 5 64 9 58 4 -7 8 -22 8 -34 0
-26 20 -74 37 -88 20 -17 75 -173 68 -194 -3 -11 -1 -22 5 -26 5 -3 10 -2 10
4 0 5 9 13 20 16 24 8 26 41 5 92 -8 19 -15 48 -15 63 0 15 -7 33 -15 40 -8 7
-15 16 -15 21 0 5 -11 27 -25 49 l-25 40 24 0 c13 0 26 6 29 13 4 10 7 10 18
0 23 -22 36 -14 45 29 9 43 34 65 34 29 0 -29 22 -73 45 -93 19 -16 19 -16
-20 -15 l-40 2 0 -85 0 -85 37 3 c36 3 76 -11 91 -32 12 -18 26 15 20 49 -3
16 -18 54 -34 84 -38 72 -37 79 7 33 25 -27 34 -31 30 -17 -3 11 -13 54 -22
95 -10 41 -23 82 -31 91 -7 8 -13 24 -13 35 1 17 2 17 20 -5 11 -13 20 -29 20
-36 0 -16 30 -29 42 -17 9 9 -6 56 -38 118 -19 38 -20 41 -3 37 10 -3 25 -16
34 -30 9 -13 23 -32 31 -41 8 -9 14 -21 15 -27 0 -5 7 -20 15 -32 8 -13 18
-39 22 -60 9 -44 27 -54 36 -19 7 30 -16 102 -56 174 -17 29 -28 55 -26 58 10
9 68 -31 68 -47 0 -8 12 -26 26 -40 14 -13 32 -35 39 -49 7 -14 31 -45 54 -69
22 -24 43 -57 47 -74 7 -33 31 -58 49 -51 6 3 19 -11 28 -31 15 -32 37 -48 37
-26 0 26 -42 99 -60 104 -14 3 -20 14 -20 32 0 31 -75 140 -103 150 -29 10
-80 62 -73 74 14 22 33 10 121 -74 92 -87 118 -104 89 -60 -9 14 -20 25 -24
25 -6 0 -30 44 -30 55 0 10 49 4 55 -6 4 -6 13 -8 21 -5 9 3 18 -2 21 -12 10
-26 61 -89 133 -161 36 -36 98 -105 139 -153 60 -70 80 -88 102 -88 14 0 32 7
39 15 10 12 10 15 0 15 -7 0 -23 10 -35 23 -12 12 -42 40 -65 62 -55 50 -104
126 -89 136 7 4 9 14 4 25 -5 13 -9 15 -12 7 -8 -21 -15 -16 -82 47 -44 42
-61 64 -57 76 4 9 12 14 21 10 13 -4 13 -2 5 14 -6 11 -15 20 -20 20 -6 0 -10
5 -10 10 0 6 11 8 25 4 45 -11 54 -1 41 48 -6 24 -17 53 -24 66 -21 37 -9 45
23 18 17 -14 38 -26 48 -26 29 0 118 -41 143 -67 13 -13 18 -23 12 -23 -6 0
-8 -3 -5 -6 9 -9 77 -11 77 -3 0 12 -52 58 -108 96 -114 76 -175 137 -200 198
-17 44 -20 60 -11 71 23 28 46 11 40 -28 0 -5 6 -8 14 -8 22 0 95 -39 95 -50
0 -6 5 -10 11 -10 15 0 69 -52 69 -67 0 -7 6 -13 14 -13 8 0 21 -6 28 -13 7
-7 25 -18 41 -24 31 -14 36 -33 8 -33 -11 0 -22 -4 -26 -9 -5 -10 21 -27 85
-56 69 -31 78 -38 89 -62 6 -13 11 -26 11 -28 0 -13 -25 -2 -53 21 -32 27 -51
18 -26 -12 23 -28 100 -76 113 -71 17 7 96 -65 96 -87 0 -9 -4 -16 -10 -16
-16 0 -60 23 -60 31 0 4 -8 7 -17 6 -23 -1 -73 32 -73 48 0 15 -27 28 -41 19
-5 -3 -3 -15 6 -27 36 -51 0 -42 -48 12 -46 51 -59 61 -68 56 -7 -5 -5 -14 6
-28 8 -12 27 -43 42 -68 15 -25 41 -56 59 -70 18 -13 35 -34 39 -47 3 -12 17
-27 32 -33 60 -23 173 -128 173 -162 0 -23 13 -42 83 -119 15 -17 27 -35 27
-39 0 -5 7 -9 15 -9 22 0 19 7 -25 62 -40 50 -58 95 -20 49 15 -18 20 -19 20
-7 0 9 -4 16 -10 16 -5 0 -10 9 -10 20 0 11 -4 20 -10 20 -5 0 -19 18 -30 39
-11 22 -26 44 -33 48 -15 10 -87 97 -87 107 0 21 33 -5 118 -91 58 -60 95
-105 93 -115 -1 -10 3 -18 8 -18 6 0 11 12 11 28 0 19 -18 47 -63 97 -101 114
-126 150 -118 164 7 10 10 10 16 1 11 -18 25 7 25 46 0 38 -22 69 -43 61 -21
-8 -77 68 -77 106 0 9 -5 28 -12 44 -6 15 -11 33 -10 38 1 6 -10 18 -23 28
-14 10 -25 13 -25 7 0 -5 5 -10 12 -10 6 0 8 -3 5 -6 -4 -4 -20 -1 -36 6 -28
11 -49 53 -43 86 3 14 -26 39 -35 31 -3 -4 -27 11 -52 31 -40 33 -128 82 -147
82 -4 0 -22 11 -40 25 -18 14 -41 25 -51 25 -34 0 -47 21 -44 68 1 33 9 42 34
42 13 0 26 -9 32 -22 8 -18 17 -22 39 -20 23 3 36 -3 58 -28 15 -18 28 -39 28
-47 0 -15 23 -43 35 -43 4 0 27 -20 51 -45 23 -25 47 -45 52 -45 11 0 131 -95
204 -161 26 -24 62 -51 80 -60 18 -9 42 -26 52 -38 26 -28 53 -27 58 3 4 18 1
22 -13 19 -9 -3 -20 0 -23 6 -7 10 -2 12 32 15 7 1 17 8 22 16 7 11 13 12 34
2 23 -10 26 -9 26 9 0 18 5 20 33 16 63 -10 72 -14 72 -32 0 -12 9 -21 24 -25
24 -6 42 -30 22 -30 -5 0 -2 -13 7 -30 9 -16 20 -30 25 -30 4 0 7 -6 7 -13 0
-14 83 -87 99 -87 6 0 11 9 11 20 0 11 5 20 11 20 6 0 -14 28 -45 62 -59 64
-66 78 -41 78 8 0 15 -4 15 -8 0 -9 90 -76 94 -71 27 41 32 57 25 77 -10 28
-80 120 -111 147 l-23 20 38 3 c29 3 37 7 37 23 0 28 22 19 39 -15 9 -19 16
-24 21 -17 5 8 23 10 58 5 34 -4 52 -3 52 4 0 6 -9 14 -20 17 -24 8 -26 21 -4
29 21 8 9 23 -25 31 -16 3 -36 13 -43 22 -12 14 -8 15 36 9 33 -5 46 -4 41 3
-3 6 -13 11 -21 11 -8 0 -14 5 -14 10 0 6 -6 10 -13 10 -22 0 -77 30 -78 43
-1 7 -1 17 0 23 1 7 -5 14 -13 17 -7 3 -24 20 -37 38 l-23 32 30 -7 c16 -4 41
-16 57 -27 31 -22 37 -8 7 18 -11 10 -20 23 -20 29 0 7 -7 14 -15 18 -35 13
-12 25 42 20 40 -3 75 -14 122 -40 41 -23 88 -40 126 -45 121 -18 191 -28 255
-38 93 -15 137 -14 122 2 -7 6 -27 17 -44 23 -38 13 -46 29 -18 37 30 8 24 27
-9 27 -40 0 -61 -9 -61 -27 0 -39 -194 16 -269 75 -23 18 -23 20 -6 45 9 15
21 27 26 27 5 0 9 7 9 15 0 17 -30 35 -59 35 -36 0 -23 18 19 25 27 5 40 12
41 23 1 10 5 -1 8 -23 7 -46 34 -56 39 -15 2 14 15 37 29 52 25 26 25 26 5 37
-11 6 -38 9 -61 7 -34 -3 -44 1 -66 25 -14 16 -35 29 -47 29 -35 0 -6 21 31
22 19 1 51 -11 82 -31 54 -33 104 -39 104 -11 0 10 -12 16 -32 18 -18 2 -34 7
-34 13 -6 31 -2 32 76 31 57 -2 75 1 63 8 -9 5 -46 11 -82 12 -73 2 -86 10
-83 54 2 29 2 29 -78 41 -163 25 -226 38 -223 48 2 6 19 9 38 7 215 -16 210
-16 208 9 -2 16 3 24 17 27 93 17 118 38 73 59 -79 38 -121 53 -145 53 -30 1
-54 12 -98 48 -27 22 -28 23 -9 38 14 11 34 13 75 9 45 -5 60 -2 79 13 29 24
20 39 -28 47 -20 4 -44 9 -52 12 -20 8 -54 3 -61 -8 -3 -6 -39 -13 -79 -16
-51 -4 -71 -3 -66 5 3 6 21 14 39 17 17 4 38 12 45 18 8 6 32 13 53 16 22 3
40 10 40 16 1 5 -20 20 -45 34 -48 26 -61 51 -26 51 15 0 20 7 20 25 0 21 -5
25 -31 25 -33 0 -69 15 -69 29 0 5 11 12 25 15 30 8 31 16 5 49 -15 19 -18 31
-11 49 5 13 5 33 -1 47 -5 14 -7 33 -6 44 5 37 -46 56 -147 55 -49 0 -110 -4
-135 -8z m183 -531 c-4 -4 -37 -11 -72 -15 -52 -6 -63 -4 -59 7 5 15 66 26
111 20 16 -2 25 -7 20 -12z m-455 -35 c16 -11 34 -13 67 -8 30 4 45 3 45 -5 0
-6 -18 -11 -42 -11 -24 0 -51 -7 -62 -15 -13 -10 -24 -11 -37 -5 -26 14 -42
12 -35 -5 7 -19 -24 -27 -95 -23 -38 2 -54 7 -54 17 0 8 7 17 15 21 81 38 93
42 160 49 9 0 26 -6 38 -15z m12 -79 c0 -10 -10 -15 -30 -15 -36 0 -38 7 -7
20 32 13 37 12 37 -5z m806 -27 c115 -21 74 -31 -92 -24 -170 7 -217 14 -208
27 8 13 226 11 300 -3z m-676 -53 c-14 -17 -70 -20 -70 -4 0 6 6 9 13 6 8 -3
20 -1 28 4 8 5 20 9 28 9 11 0 11 -3 1 -15z m-150 -20 c0 -21 -40 -55 -64 -55
-39 1 -121 26 -108 34 11 7 129 33 160 35 6 1 12 -6 12 -14z m609 -1 c2 -2
-14 -4 -37 -4 -23 0 -42 5 -42 10 0 10 67 4 79 -6z m-179 -56 c57 -18 49 -32
-15 -25 -64 6 -84 15 -64 28 19 12 32 11 79 -3z m-488 -121 c13 -19 23 -22 66
-20 47 2 53 0 79 -31 15 -18 43 -41 61 -50 17 -9 32 -20 32 -25 0 -15 -82 0
-130 24 -25 12 -62 25 -83 29 -31 6 -37 10 -32 26 5 14 -2 23 -25 35 -17 9
-28 20 -25 25 11 18 42 10 57 -13z m-792 -7 c12 -8 9 -10 -12 -10 -16 0 -28 5
-28 10 0 13 20 13 40 0z m125 -30 c-3 -5 -22 -10 -42 -10 -26 0 -36 -5 -40
-20 -6 -23 -39 -26 -66 -6 -16 12 -15 14 14 20 17 3 35 3 40 0 5 -3 9 2 9 10
0 12 11 16 46 16 27 0 43 -4 39 -10z m661 -62 c3 -4 15 -8 26 -8 12 0 31 -8
42 -18 22 -19 61 -36 109 -47 26 -5 28 -9 22 -38 -7 -33 -29 -57 -52 -57 -21
0 -143 59 -143 69 0 5 -12 12 -26 15 -14 4 -37 14 -49 22 -21 13 -22 19 -13
45 9 26 14 29 45 27 19 -1 37 -6 39 -10z m-907 -12 c10 -12 8 -17 -9 -26 -32
-17 -64 -9 -68 18 -3 19 1 22 31 22 19 0 40 -6 46 -14z m1606 4 c3 -5 19 -10
35 -10 35 0 61 -9 55 -20 -2 -4 -24 -4 -47 1 -24 4 -46 8 -49 9 -4 0 -9 7 -13
15 -6 17 9 21 19 5z m-1222 -21 c23 7 59 15 80 18 58 8 177 -26 177 -51 0 -6
12 -19 25 -29 19 -14 32 -16 63 -9 46 11 72 0 72 -30 0 -18 -4 -19 -37 -13
-74 13 -145 11 -153 -5 -4 -8 -12 -25 -19 -38 -14 -26 -7 -44 14 -35 8 3 15 0
15 -5 0 -6 16 -16 35 -23 35 -13 35 -13 13 -26 -13 -7 -32 -10 -43 -7 l-20 6
20 -16 c18 -14 18 -15 3 -16 -10 0 -32 16 -49 35 -27 29 -39 35 -74 35 -29 0
-47 6 -60 20 -10 11 -24 20 -32 20 -7 0 -13 5 -13 10 0 6 -15 10 -32 9 -18 0
-27 -3 -20 -6 15 -6 16 -43 1 -43 -5 0 -8 -4 -4 -9 11 -18 -15 -22 -47 -8 -18
8 -42 17 -53 20 -70 19 -121 45 -133 69 -7 15 -21 30 -32 33 -11 4 -20 11 -20
16 0 17 50 9 100 -16 27 -14 60 -25 74 -25 13 0 27 -7 30 -16 5 -13 9 -14 21
-4 8 6 18 9 24 6 5 -3 9 10 9 29 0 32 -3 36 -36 44 -21 5 -54 9 -75 9 -21 0
-40 2 -43 5 -9 9 9 37 25 37 9 0 24 7 34 14 15 12 25 11 68 -2 42 -14 56 -14
92 -3z m1194 -136 c35 -16 51 -28 42 -30 -18 -4 -105 33 -115 48 -9 16 14 10
73 -18z m-623 -24 c14 -17 24 -34 21 -39 -8 -13 -45 1 -45 16 0 8 -6 14 -14
14 -21 0 -40 27 -24 33 26 11 37 6 62 -24z m-139 -39 c16 -7 13 -9 -17 -9 -20
-1 -40 4 -43 9 -7 12 32 12 60 0z m-647 -9 c18 -5 46 -23 63 -40 16 -17 51
-40 77 -52 l47 -21 -34 -10 c-29 -8 -43 -5 -97 22 -45 22 -64 37 -64 50 0 11
-13 26 -30 35 -16 9 -30 18 -30 20 0 8 33 6 68 -4z m748 -46 c27 -19 54 -35
61 -35 6 0 25 -14 42 -30 17 -17 34 -31 38 -32 4 0 17 -6 28 -13 11 -7 40 -24
63 -38 24 -13 40 -27 35 -30 -12 -8 -93 29 -123 57 -14 12 -45 31 -70 41 -80
34 -109 55 -103 72 5 12 3 14 -7 8 -9 -5 -11 -4 -6 4 4 7 -2 15 -16 20 -14 6
-17 10 -7 10 8 1 38 -15 65 -34z m239 -70 c25 -20 27 -24 11 -25 -20 0 -56 27
-56 42 0 14 14 9 45 -17z m-239 -33 c-4 -3 -14 2 -24 12 -16 18 -16 18 6 6 13
-6 21 -14 18 -18z m404 -59 c0 -16 -25 -11 -78 17 l-33 18 22 15 c20 15 24 14
55 -10 19 -14 34 -32 34 -40z m-444 19 c-4 -3 -14 2 -24 12 -16 18 -16 18 6 6
13 -6 21 -14 18 -18z m404 -92 c22 -30 13 -43 -10 -15 -7 8 -18 15 -25 15 -17
0 -38 27 -30 40 9 15 39 -4 65 -40z m-420 -54 c7 -9 10 -19 7 -23 -7 -7 -91
64 -101 85 -7 15 74 -39 94 -62z m200 12 c25 -13 49 -37 50 -50 0 -15 -15 -8
-45 20 -17 15 -44 35 -60 44 -16 9 -31 21 -33 28 -2 6 11 2 30 -10 18 -11 44
-25 58 -32z m360 32 c0 -5 -7 -7 -15 -4 -8 4 -15 8 -15 10 0 2 7 4 15 4 8 0
15 -4 15 -10z m-3500 -10 c0 -11 -9 -20 -103 -105 -37 -33 -67 -66 -67 -72 0
-7 -4 -13 -10 -13 -5 0 -10 7 -10 15 0 8 4 15 10 15 5 0 17 16 26 35 9 20 36
50 60 67 24 17 44 34 44 38 0 4 10 12 23 18 28 14 27 14 27 2z m1532 -19 c3 9
11 5 28 -12 14 -13 40 -29 60 -34 30 -9 40 -21 70 -77 37 -72 35 -97 -4 -55
-13 14 -42 31 -65 37 -37 10 -41 14 -47 51 -5 30 -12 41 -30 45 -13 3 -24 10
-24 14 0 5 -3 17 -6 27 -4 13 -3 15 4 4 8 -11 10 -11 14 0z m-1472 -47 c0 -19
-77 -134 -91 -134 -5 0 -18 -14 -28 -31 -14 -23 -20 -27 -24 -15 -4 9 -13 16
-22 16 -25 0 -18 12 41 70 30 30 67 67 82 83 30 31 42 34 42 11z m3304 -9 c11
-8 15 -15 10 -15 -6 0 -19 7 -30 15 -10 8 -14 14 -9 14 6 0 19 -6 29 -14z
m-114 -15 c8 -5 12 -12 9 -15 -8 -8 -39 5 -39 16 0 11 11 11 30 -1z m-1360
-76 l0 -25 -26 25 c-30 27 -25 53 7 36 11 -6 19 -21 19 -36z m1390 16 c0 -5
-13 -10 -30 -10 -16 0 -30 5 -30 10 0 6 14 10 30 10 17 0 30 -4 30 -10z
m-1980 -127 c0 -31 -3 -53 -7 -49 -5 4 -8 30 -8 57 0 27 3 49 8 49 4 0 7 -25
7 -57z m570 -20 c0 -14 -2 -14 -20 2 -11 10 -20 22 -20 27 0 5 9 4 20 -2 11
-6 20 -18 20 -27z m-1989 -216 c-25 -38 -28 -19 -4 26 9 18 18 26 20 19 3 -7
-5 -27 -16 -45z m676 -29 c-3 -8 -6 -5 -6 6 -1 11 2 17 5 13 3 -3 4 -12 1 -19z
m23 -148 c0 -10 -4 -22 -10 -25 -6 -4 -10 7 -10 25 0 18 4 29 10 25 6 -3 10
-15 10 -25z"/>
<path d="M8060 4840 c-14 -9 -7 -14 13 -11 5 1 6 -2 3 -7 -2 -4 -1 -14 4 -22
7 -12 10 -11 16 4 9 24 -16 49 -36 36z"/>
<path d="M8177 5633 c-13 -12 -7 -23 12 -23 10 0 24 7 31 15 10 13 9 15 -12
15 -14 0 -28 -3 -31 -7z"/>
<path d="M8038 5603 c-10 -2 -18 -11 -18 -18 0 -7 -8 -16 -17 -18 -10 -3 -3
-5 16 -6 22 -1 39 5 47 17 24 30 16 37 -28 25z"/>
<path d="M7888 5533 c7 -3 16 -2 19 1 4 3 -2 6 -13 5 -11 0 -14 -3 -6 -6z"/>
<path d="M7820 5315 c-25 -8 -54 -15 -65 -15 -33 -1 -51 -16 -37 -33 7 -7 9
-17 5 -20 -3 -4 3 -7 15 -7 12 0 22 4 22 10 0 5 17 12 38 15 20 4 46 10 57 15
11 5 33 11 48 15 16 3 27 11 24 18 -5 17 -55 18 -107 2z"/>
<path d="M7625 5269 c-10 -15 3 -25 16 -12 7 7 7 13 1 17 -6 3 -14 1 -17 -5z"/>
<path d="M2225 5260 c27 -12 35 -12 35 0 0 6 -12 10 -27 9 -25 0 -26 -1 -8 -9z"/>
<path d="M7500 5250 c0 -5 20 -10 45 -10 25 0 45 5 45 10 0 6 -20 10 -45 10
-25 0 -45 -4 -45 -10z"/>
<path d="M9780 5232 c0 -15 24 -32 46 -32 33 0 37 15 8 29 -29 13 -54 14 -54
3z"/>
<path d="M6297 5008 c-45 -16 -21 -28 50 -23 71 5 86 11 63 25 -19 12 -77 11
-113 -2z"/>
<path d="M6910 4945 c-18 -22 -1 -45 36 -45 22 0 38 7 48 22 9 12 15 23 13 24
-1 0 -21 4 -44 7 -28 3 -46 1 -53 -8z"/>
<path d="M9698 4943 c12 -2 30 -2 40 0 9 3 -1 5 -23 4 -22 0 -30 -2 -17 -4z"/>
<path d="M5429 4879 c-19 -11 34 -23 67 -15 15 4 25 9 23 10 -9 9 -78 13 -90
5z"/>
<path d="M9775 4865 c35 -16 65 -19 65 -6 0 13 -26 21 -63 20 l-32 -1 30 -13z"/>
<path d="M9454 4629 c-3 -6 4 -13 15 -16 12 -3 20 -10 19 -17 -6 -31 110 -116
158 -116 43 0 -14 79 -68 95 -13 4 -32 15 -43 25 -28 26 -73 42 -81 29z"/>
<path d="M9507 4504 c-13 -13 -7 -24 14 -24 11 0 19 5 17 12 -5 14 -22 21 -31
12z"/>
<path d="M9900 4290 c27 -21 50 -26 50 -11 0 5 -14 14 -31 20 -44 15 -48 14
-19 -9z"/>
<path d="M8710 4252 c0 -21 34 -52 56 -52 12 0 24 -6 27 -12 3 -10 8 -10 16
-2 10 9 6 16 -15 33 -15 11 -34 21 -43 21 -10 0 -22 5 -29 12 -9 9 -12 9 -12
0z"/>
<path d="M9020 4225 c0 -9 -9 -15 -25 -15 -53 0 -13 -48 45 -54 21 -2 100 -59
100 -72 0 -16 49 -58 57 -49 5 4 2 10 -4 12 -7 3 -13 11 -13 19 0 8 -7 14 -17
14 -9 0 -13 3 -10 6 8 9 -22 51 -78 108 -48 50 -55 54 -55 31z"/>
<path d="M9790 4230 c0 -5 5 -10 11 -10 6 0 26 -7 45 -16 19 -9 37 -14 41 -11
3 4 -7 11 -23 18 -16 6 -37 15 -46 20 -23 12 -28 11 -28 -1z"/>
<path d="M5410 4199 c0 -5 5 -7 10 -4 6 3 10 8 10 11 0 2 -4 4 -10 4 -5 0 -10
-5 -10 -11z"/>
<path d="M8488 4192 c-3 -12 2 -23 13 -31 16 -9 19 -8 19 8 0 10 -6 24 -14 30
-11 9 -15 7 -18 -7z"/>
<path d="M8240 4175 c14 -16 49 -51 78 -79 29 -29 52 -59 52 -71 0 -22 79
-110 89 -99 3 4 0 9 -6 11 -7 3 -13 16 -13 29 0 44 -36 96 -84 121 -16 8 -40
28 -53 44 -14 16 -39 39 -56 51 l-32 22 25 -29z"/>
<path d="M9713 4183 c9 -14 47 -24 47 -12 0 5 -4 9 -9 9 -5 0 -17 3 -27 7 -11
4 -15 3 -11 -4z"/>
<path d="M8150 4173 c0 -13 29 -38 35 -31 3 3 -4 13 -15 23 -11 10 -20 13 -20
8z"/>
<path d="M9782 4144 c9 -10 37 -30 62 -43 37 -21 47 -23 60 -12 30 25 5 40
-109 67 -29 7 -29 6 -13 -12z"/>
<path d="M8950 4144 c0 -4 15 -21 33 -39 17 -18 43 -49 57 -69 15 -22 46 -47
77 -63 28 -14 54 -34 56 -45 4 -14 11 -17 29 -13 16 4 37 -3 68 -24 24 -16 47
-28 49 -25 11 11 -70 77 -94 77 -19 0 -29 7 -36 24 -5 14 -18 27 -29 30 -11 3
-33 26 -50 53 -20 31 -47 56 -79 73 -46 26 -81 34 -81 21z"/>
<path d="M8840 4089 c0 -16 60 -67 89 -74 22 -6 61 -36 61 -48 0 -2 40 -44 89
-93 68 -69 90 -97 95 -125 8 -44 40 -87 74 -100 33 -13 38 -5 13 20 -12 12
-21 27 -21 35 0 8 -6 16 -12 19 -13 5 -32 38 -67 117 -21 50 -122 151 -181
183 -19 10 -49 32 -65 48 -30 28 -75 39 -75 18z"/>
<path d="M9950 4030 c0 -6 7 -10 15 -10 8 0 15 2 15 4 0 2 -7 6 -15 10 -8 3
-15 1 -15 -4z"/>
<path d="M8790 4005 c0 -14 41 -47 73 -58 9 -4 17 -11 17 -17 0 -5 5 -10 10
-10 6 0 22 -12 37 -26 14 -14 27 -23 29 -21 7 7 -70 87 -83 87 -6 0 -18 11
-26 24 -18 27 -57 41 -57 21z"/>
<path d="M8300 3970 c0 -5 5 -10 10 -10 6 0 10 5 10 10 0 6 -4 10 -10 10 -5 0
-10 -4 -10 -10z"/>
<path d="M7820 3936 c1 -33 63 -151 82 -154 14 -3 19 6 24 37 3 22 13 42 21
45 8 3 11 1 8 -4 -3 -6 1 -7 9 -4 9 3 16 13 16 21 0 12 -9 14 -36 11 -33 -4
-39 -1 -56 28 -23 39 -68 53 -68 20z"/>
<path d="M7700 3926 c0 -13 12 -43 55 -141 7 -16 20 -55 29 -85 9 -30 23 -66
31 -80 l14 -25 1 37 c0 21 -6 52 -14 70 -8 18 -24 60 -36 93 -37 102 -52 134
-66 139 -8 3 -14 -1 -14 -8z"/>
<path d="M8520 3928 c0 -16 68 -63 77 -55 3 4 -1 15 -10 25 -10 10 -17 24 -17
30 0 7 -11 12 -25 12 -14 0 -25 -6 -25 -12z"/>
<path d="M9970 3900 c0 -20 32 -39 65 -40 29 0 29 0 10 19 -25 25 -75 38 -75
21z"/>
<path d="M9186 3874 c-22 -21 -16 -36 18 -47 15 -5 46 -29 69 -52 22 -24 45
-41 50 -38 5 3 -12 26 -37 52 -34 34 -46 54 -44 72 4 30 -31 38 -56 13z"/>
<path d="M8890 3870 c0 -5 5 -10 10 -10 6 0 10 5 10 10 0 6 -4 10 -10 10 -5 0
-10 -4 -10 -10z"/>
<path d="M7990 3813 c0 -19 14 -43 40 -71 23 -25 40 -53 40 -66 0 -27 25 -42
34 -20 12 31 46 13 105 -55 69 -81 141 -177 141 -188 0 -5 9 -14 20 -21 18
-11 20 -10 20 17 0 17 -5 33 -10 36 -14 9 -50 81 -50 100 0 8 7 15 16 15 10 0
14 7 12 22 -4 28 -54 44 -66 21 -15 -25 -107 39 -148 104 -27 40 -40 53 -59
53 -18 0 -32 11 -51 40 -31 47 -44 51 -44 13z"/>
<path d="M8937 3820 c23 -21 40 -99 27 -122 -4 -7 -4 -10 0 -6 12 11 73 -62
80 -94 4 -20 1 -35 -9 -45 -8 -8 -15 -22 -15 -31 0 -11 -17 0 -50 33 -27 27
-53 46 -57 42 -4 -4 13 -35 36 -68 29 -41 41 -67 37 -81 -7 -29 8 -55 60 -105
24 -23 44 -46 44 -50 0 -5 12 -16 28 -25 21 -13 37 -14 72 -8 25 5 48 6 52 4
5 -3 8 -2 8 1 0 11 -103 209 -117 227 -11 13 -12 21 -3 37 16 31 32 25 62 -24
27 -44 48 -58 48 -32 0 21 -58 107 -72 107 -21 0 -78 59 -78 81 0 10 5 19 10
19 22 0 -10 37 -84 98 -41 34 -80 62 -87 62 -7 0 -4 -8 8 -20z m98 -378 c6 -4
23 -24 38 -44 15 -21 41 -52 57 -70 27 -29 40 -68 23 -68 -12 0 -53 43 -53 57
0 7 -4 13 -9 13 -5 0 -12 8 -16 19 -3 10 -19 31 -35 47 -37 36 -41 72 -5 46z"/>
<path d="M9317 3833 c-9 -9 33 -53 50 -53 7 0 13 -4 13 -10 0 -16 34 -28 63
-23 l28 6 -28 18 c-15 11 -45 24 -65 29 -22 6 -38 17 -38 25 0 16 -12 20 -23
8z"/>
<path d="M8476 3785 c4 -8 10 -12 15 -9 5 3 9 -2 9 -10 0 -8 6 -19 14 -23 7
-4 19 -18 25 -31 22 -41 249 -292 264 -292 23 0 130 -127 160 -190 16 -36 37
-73 44 -82 8 -9 24 -45 36 -79 19 -54 26 -64 52 -71 21 -5 34 -3 44 7 12 12 9
20 -27 59 -23 25 -42 52 -42 60 0 28 20 27 37 -2 26 -42 77 -97 96 -105 9 -3
17 -13 17 -22 0 -8 6 -15 14 -15 22 0 28 16 11 30 -8 6 -31 45 -51 86 -20 41
-42 74 -50 74 -7 0 -16 10 -20 23 -4 12 -21 38 -40 59 -18 20 -37 46 -44 57
-6 12 -17 21 -25 21 -8 0 -15 5 -15 10 0 6 -4 10 -10 10 -5 0 -7 -7 -4 -15 3
-8 3 -19 -1 -25 -4 -7 -18 10 -34 42 -18 37 -33 54 -49 56 -12 2 -22 8 -22 13
0 6 -11 21 -25 35 -14 14 -25 28 -25 33 0 4 -20 18 -45 31 -25 13 -45 26 -45
29 0 15 -148 171 -162 171 -15 0 -45 33 -52 58 -5 15 -15 22 -31 22 -18 0 -23
-4 -19 -15z"/>
<path d="M8616 3748 c15 -28 38 -48 52 -48 11 0 7 9 -13 30 -29 30 -52 41 -39
18z"/>
<path d="M9292 3708 c27 -36 95 -87 116 -88 18 0 15 18 -5 24 -10 4 -40 26
-66 51 -56 52 -81 59 -45 13z"/>
<path d="M9510 3731 c0 -10 5 -13 111 -68 69 -36 69 -36 69 -25 0 7 -34 28
-112 69 -15 8 -30 18 -33 24 -8 12 -35 12 -35 0z"/>
<path d="M7698 3719 c-5 -16 50 -129 63 -129 13 0 5 29 -24 88 -23 48 -33 58
-39 41z"/>
<path d="M6423 3694 c-12 -13 -27 -33 -32 -43 -18 -33 -8 -337 10 -326 5 4 9
14 9 24 0 10 11 34 23 53 21 30 25 51 31 159 6 117 3 160 -13 158 -3 -1 -16
-12 -28 -25z m14 -211 c-3 -10 -5 -2 -5 17 0 19 2 27 5 18 2 -10 2 -26 0 -35z"/>
<path d="M7620 3677 c0 -23 40 -107 50 -107 15 0 12 38 -4 47 -8 4 -16 21 -18
37 -3 30 -28 50 -28 23z"/>
<path d="M5947 3663 c-2 -4 -8 -32 -12 -61 -5 -39 -13 -57 -30 -68 -13 -8 -27
-27 -32 -42 -13 -38 -1 -184 15 -190 30 -10 40 -33 41 -98 0 -74 7 -104 23
-104 7 0 9 32 5 102 -3 62 -1 110 5 122 7 13 7 30 -2 55 -15 47 -16 130 -2
211 6 36 7 69 3 73 -5 5 -11 5 -14 0z"/>
<path d="M6921 3657 c-7 -9 -10 -25 -6 -37 13 -41 37 -15 26 29 -6 21 -8 22
-20 8z"/>
<path d="M7330 3652 c0 -12 11 -42 25 -69 27 -53 33 -36 11 36 -14 47 -36 67
-36 33z"/>
<path d="M7410 3656 c0 -9 5 -16 10 -16 6 0 10 4 10 9 0 6 -4 13 -10 16 -5 3
-10 -1 -10 -9z"/>
<path d="M6830 3585 c0 -79 16 -127 45 -138 22 -9 20 44 -5 95 -11 23 -20 56
-20 74 0 18 -4 36 -10 39 -6 4 -10 -22 -10 -70z"/>
<path d="M6980 3635 c0 -14 4 -25 9 -25 4 0 6 11 3 25 -2 14 -6 25 -8 25 -2 0
-4 -11 -4 -25z"/>
<path d="M9519 3636 c24 -25 61 -41 61 -25 0 10 -59 49 -74 49 -5 0 1 -11 13
-24z"/>
<path d="M5845 3581 c-9 -39 -21 -74 -26 -77 -18 -11 -41 -155 -52 -326 -4
-67 19 -44 27 25 2 29 9 77 15 107 5 30 12 75 16 100 7 51 20 102 43 173 11
33 13 50 5 58 -7 7 -15 -10 -28 -60z"/>
<path d="M8419 3631 c6 -10 17 -24 26 -31 15 -12 15 -11 4 13 -6 14 -18 28
-26 31 -10 4 -11 1 -4 -13z"/>
<path d="M6870 3624 c0 -11 7 -29 15 -40 19 -25 19 -4 0 32 -12 24 -15 26 -15
8z"/>
<path d="M7921 3590 c6 -16 16 -30 22 -30 7 0 7 4 -1 12 -7 7 -12 20 -12 30 0
10 -4 18 -9 18 -6 0 -6 -12 0 -30z"/>
<path d="M7512 3565 c0 -16 2 -22 5 -12 2 9 2 23 0 30 -3 6 -5 -1 -5 -18z"/>
<path d="M8587 3540 c3 -11 7 -20 9 -20 2 0 4 9 4 20 0 11 -4 20 -9 20 -5 0
-7 -9 -4 -20z"/>
<path d="M9673 3526 c33 -31 52 -34 35 -6 -7 11 -16 20 -20 20 -3 0 -15 3 -25
6 -12 4 -9 -2 10 -20z"/>
<path d="M6191 3498 c0 -39 1 -41 10 -18 8 20 12 22 19 10 7 -10 10 -11 10 -2
0 6 -9 21 -20 32 l-20 20 1 -42z"/>
<path d="M9516 3526 c3 -8 12 -17 20 -20 11 -4 12 -2 1 14 -14 23 -29 27 -21
6z"/>
<path d="M6004 3486 c-9 -23 0 -69 13 -74 16 -5 35 44 28 69 -7 22 -33 25 -41
5z"/>
<path d="M7172 3488 c-6 -9 -6 -37 0 -83 14 -100 48 -171 62 -127 9 28 -12
173 -29 199 -18 27 -19 27 -33 11z"/>
<path d="M7106 3455 c8 -50 10 -52 16 -20 3 14 -1 33 -9 42 -12 16 -13 13 -7
-22z"/>
<path d="M7270 3466 c0 -14 5 -28 10 -31 6 -4 10 7 10 24 0 17 -4 31 -10 31
-5 0 -10 -11 -10 -24z"/>
<path d="M7870 3483 c1 -11 50 -70 50 -60 0 16 -31 67 -40 67 -6 0 -10 -3 -10
-7z"/>
<path d="M6534 3454 c-4 -14 -2 -30 5 -37 8 -8 11 -1 11 26 0 43 -7 48 -16 11z"/>
<path d="M8560 3466 c0 -8 7 -16 15 -20 13 -4 14 -2 5 14 -13 23 -20 26 -20 6z"/>
<path d="M6240 3446 c0 -14 5 -26 10 -26 6 0 10 9 10 19 0 11 -4 23 -10 26 -6
4 -10 -5 -10 -19z"/>
<path d="M7314 3449 c-8 -14 14 -72 34 -90 18 -15 19 -14 20 19 1 26 -5 41
-23 58 -14 12 -27 18 -31 13z"/>
<path d="M8050 3460 c0 -3 11 -27 25 -54 16 -32 39 -58 63 -72 29 -17 42 -36
61 -83 13 -33 21 -70 18 -81 -7 -28 57 -126 150 -229 43 -47 45 -19 3 42 -34
50 -37 67 -15 67 9 0 24 -17 33 -37 29 -65 86 -152 100 -153 15 0 16 -5 -13
70 -29 74 -65 133 -107 173 -16 15 -26 32 -23 38 6 9 -13 40 -108 174 -40 56
-46 60 -80 59 -20 -1 -37 1 -37 5 0 7 -69 88 -70 81z"/>
<path d="M8230 3441 c0 -22 78 -103 91 -95 19 11 8 40 -30 77 -42 41 -61 47
-61 18z"/>
<path d="M7593 3409 c3 -22 13 -46 22 -53 9 -7 21 -30 25 -52 4 -21 13 -52 19
-69 6 -16 13 -41 15 -55 3 -14 24 -50 47 -80 23 -30 39 -46 35 -35 -5 11 -15
39 -23 62 -8 24 -19 45 -24 49 -5 3 -9 23 -9 45 0 21 -4 39 -9 39 -5 0 -12 15
-16 33 -4 17 -16 47 -26 65 -10 18 -19 41 -19 51 0 18 -18 41 -33 41 -5 0 -7
-18 -4 -41z"/>
<path d="M9245 3430 c3 -5 8 -10 11 -10 2 0 4 5 4 10 0 6 -5 10 -11 10 -5 0
-7 -4 -4 -10z"/>
<path d="M7035 3411 c-3 -6 6 -73 21 -148 29 -146 55 -208 101 -238 26 -17 26
-17 19 6 -4 13 -12 42 -16 64 -23 109 -34 142 -51 161 -10 11 -19 32 -19 45 0
32 -46 124 -55 110z"/>
<path d="M8610 3388 c0 -28 102 -217 120 -223 22 -7 35 -32 39 -74 1 -8 7 -11
17 -7 19 7 54 -10 54 -27 0 -7 5 -29 11 -50 7 -28 18 -41 42 -51 18 -7 33 -12
35 -11 7 6 -29 79 -53 107 -14 16 -25 36 -25 43 0 8 -9 20 -20 28 -21 14 -67
93 -110 189 -8 17 -18 24 -28 21 -10 -4 -13 -2 -8 6 12 19 -21 61 -49 61 -14
0 -25 -6 -25 -12z"/>
<path d="M6985 3358 c-4 -15 -3 -45 2 -65 l10 -38 7 37 c5 20 4 50 -2 65 l-10
28 -7 -27z"/>
<path d="M8750 3356 c28 -75 94 -177 140 -216 16 -14 40 -45 53 -70 28 -50 54
-68 43 -29 -4 13 -9 49 -13 79 -11 102 -74 163 -89 85 -3 -19 -11 -35 -16 -35
-6 0 -8 13 -4 30 3 19 2 29 -4 25 -6 -3 -10 1 -10 9 0 9 -6 16 -12 16 -7 0
-29 29 -47 65 -34 64 -60 89 -41 41z"/>
<path d="M6471 3319 c-15 -44 -14 -51 8 -44 16 5 20 -1 26 -34 4 -22 4 -44 1
-50 -3 -5 -3 -23 0 -40 5 -25 11 -31 28 -29 16 2 20 9 18 28 -4 34 -52 183
-62 193 -4 5 -13 -6 -19 -24z"/>
<path d="M7390 3341 c0 -15 30 -41 46 -41 17 0 17 5 4 31 -11 19 -50 27 -50
10z"/>
<path d="M6076 3318 c-11 -44 -6 -116 10 -132 18 -19 32 -162 14 -151 -6 4
-15 18 -20 31 -18 47 -40 18 -40 -53 0 -18 -4 -33 -10 -33 -5 0 -10 -18 -10
-39 0 -22 5 -43 10 -46 6 -4 10 12 10 39 0 34 4 46 15 46 15 0 23 -29 30 -120
4 -64 22 -120 37 -120 8 0 9 31 5 94 -4 56 -3 96 3 98 11 3 36 111 50 212 6
39 14 74 20 80 12 12 13 73 2 80 -5 3 -22 -15 -37 -40 -27 -42 -30 -44 -42
-28 -7 10 -13 30 -13 45 0 55 -22 79 -34 37z"/>
<path d="M8817 3321 c3 -12 10 -21 15 -21 13 0 6 32 -9 37 -7 3 -9 -3 -6 -16z"/>
<path d="M8881 3264 c0 -11 3 -14 6 -6 3 7 2 16 -1 19 -3 4 -6 -2 -5 -13z"/>
<path d="M8110 3240 c0 -13 60 -80 72 -80 18 0 6 38 -20 63 -29 28 -52 35 -52
17z"/>
<path d="M9180 3240 c0 -5 5 -10 10 -10 6 0 10 5 10 10 0 6 -4 10 -10 10 -5 0
-10 -4 -10 -10z"/>
<path d="M9265 3230 c3 -5 8 -10 11 -10 2 0 4 5 4 10 0 6 -5 10 -11 10 -5 0
-7 -4 -4 -10z"/>
<path d="M7010 3201 c0 -10 8 -25 17 -32 15 -12 16 -12 10 4 -4 10 -7 25 -7
33 0 8 -4 14 -10 14 -5 0 -10 -8 -10 -19z"/>
<path d="M7282 3180 c-2 -38 2 -47 43 -91 25 -26 45 -45 45 -42 0 26 -38 119
-59 144 l-26 31 -3 -42z"/>
<path d="M8427 3200 c3 -11 9 -23 14 -26 5 -3 9 -13 9 -23 0 -10 6 -18 14 -18
11 0 12 7 3 31 -11 35 -26 56 -37 56 -5 0 -6 -9 -3 -20z"/>
<path d="M8571 3206 c-14 -16 -7 -35 36 -103 18 -29 38 -64 43 -78 5 -14 14
-25 19 -25 12 0 -16 123 -40 178 -20 43 -38 52 -58 28z"/>
<path d="M5681 3160 l1 -55 11 43 c7 31 7 46 -1 54 -9 9 -12 -1 -11 -42z"/>
<path d="M7416 3192 c-6 -11 26 -120 47 -160 20 -36 62 -61 77 -46 5 5 -5 30
-26 64 -19 30 -34 62 -34 73 0 44 -47 95 -64 69z"/>
<path d="M8006 3172 c-6 -11 55 -132 67 -132 13 0 7 20 -23 77 -36 67 -36 67
-44 55z"/>
<path d="M8540 3127 c0 -9 4 -25 9 -35 5 -9 15 -38 23 -64 7 -27 17 -48 23
-48 5 0 21 -3 33 -7 l24 -6 -21 41 c-12 23 -21 46 -21 51 0 5 -16 27 -35 48
-26 28 -35 33 -35 20z"/>
<path d="M7831 3105 c1 -19 18 -51 18 -35 0 8 -4 22 -9 30 -5 8 -9 11 -9 5z"/>
<path d="M6645 3090 c3 -5 8 -10 11 -10 2 0 4 5 4 10 0 6 -5 10 -11 10 -5 0
-7 -4 -4 -10z"/>
<path d="M9278 3038 c20 -35 42 -48 42 -24 0 18 -34 56 -50 56 -5 0 -2 -14 8
-32z"/>
<path d="M8737 3000 c3 -11 9 -20 15 -20 5 0 4 9 -2 20 -6 11 -12 20 -14 20
-2 0 -2 -9 1 -20z"/>
<path d="M8670 2950 c0 -5 5 -10 10 -10 6 0 10 5 10 10 0 6 -4 10 -10 10 -5 0
-10 -4 -10 -10z"/>
<path d="M9060 2937 c0 -14 56 -97 65 -97 3 0 -6 17 -20 37 -14 21 -25 46 -25
55 0 10 -4 18 -10 18 -5 0 -10 -6 -10 -13z"/>
<path d="M7775 2875 c4 -27 15 -62 26 -76 10 -15 19 -35 20 -46 1 -10 5 2 10
27 7 36 6 47 -6 56 -8 6 -15 14 -15 17 0 4 -9 21 -21 39 l-21 33 7 -50z"/>
<path d="M7820 2907 c0 -8 9 -22 19 -31 10 -10 22 -33 26 -53 8 -43 25 -73 42
-73 16 0 13 46 -4 80 -7 14 -13 31 -13 38 0 6 -7 12 -15 12 -8 0 -24 9 -35 20
-14 14 -20 16 -20 7z"/>
<path d="M8030 2900 c-12 -8 -13 -13 -2 -30 6 -11 12 -30 12 -42 0 -21 13 -38
68 -90 12 -12 22 -27 22 -33 0 -7 18 -47 40 -90 22 -43 40 -84 40 -91 0 -7 13
-22 29 -33 17 -12 35 -38 41 -59 7 -20 18 -51 26 -69 8 -17 14 -37 14 -44 0
-10 3 -10 11 -2 9 9 8 18 -4 36 -10 16 -14 37 -10 63 3 25 -1 54 -11 78 -25
59 -20 77 10 41 l26 -30 -6 29 c-9 39 -34 74 -57 81 -13 4 -34 38 -59 91 -32
70 -43 84 -62 84 -29 1 -58 22 -58 44 0 17 -39 76 -49 76 -3 0 -13 -5 -21 -10z"/>
<path d="M8680 2895 c0 -11 12 -38 25 -60 l24 -40 -5 40 c-4 22 -15 49 -25 60
-19 19 -19 19 -19 0z"/>
<path d="M8990 2883 c0 -10 10 -33 21 -52 18 -30 22 -33 31 -18 7 13 3 27 -12
52 -23 38 -40 45 -40 18z"/>
<path d="M8315 2859 c7 -22 19 -38 67 -93 25 -28 27 -29 28 -10 0 23 -75 124
-92 124 -5 0 -6 -9 -3 -21z"/>
<path d="M8290 2743 c0 -17 9 -41 21 -54 l20 -24 -5 39 c-3 22 -12 47 -21 55
-13 14 -15 12 -15 -16z"/>
<path d="M7928 2748 c-8 -26 7 -83 22 -83 11 0 16 13 18 48 3 41 1 47 -16 47
-11 0 -22 -6 -24 -12z"/>
<path d="M8061 2740 c-15 -8 -8 -40 8 -40 11 0 22 38 12 44 -4 3 -13 1 -20 -4z"/>
<path d="M7730 2725 c0 -18 29 -79 35 -73 7 7 -17 88 -26 88 -5 0 -9 -7 -9
-15z"/>
<path d="M7854 2685 c-5 -17 -8 -51 -6 -77 3 -41 6 -48 24 -48 11 0 29 -10 39
-22 11 -11 19 -16 19 -10 0 6 -5 14 -10 17 -16 10 -41 76 -36 94 3 9 -1 29 -8
46 l-12 30 -10 -30z"/>
<path d="M8340 2658 c0 -16 32 -78 40 -78 16 0 12 14 -15 50 -14 19 -25 31
-25 28z"/>
<path d="M7987 2613 c-12 -12 -7 -43 7 -43 9 0 12 8 8 25 -5 27 -6 28 -15 18z"/>
<path d="M8070 2579 c0 -18 40 -89 50 -89 13 0 13 3 -6 49 -14 37 -44 63 -44
40z"/>
<path d="M8351 2465 c0 -11 6 -31 14 -45 18 -31 18 -16 0 30 -9 23 -14 28 -14
15z"/>
<path d="M10167 2079 c3 -11 21 -28 39 -37 19 -8 34 -19 34 -24 0 -4 9 -8 20
-8 11 0 20 5 20 10 0 6 -4 10 -10 10 -5 0 -27 16 -49 35 -44 40 -62 44 -54 14z"/>
<path d="M10210 1773 c0 -5 12 -20 26 -34 24 -21 26 -22 16 -3 -13 25 -42 50
-42 37z"/>
<path d="M10495 1770 c-3 -5 1 -10 10 -10 9 0 13 5 10 10 -3 6 -8 10 -10 10
-2 0 -7 -4 -10 -10z"/>
<path d="M10300 1570 c0 -5 5 -10 10 -10 6 0 10 5 10 10 0 6 -4 10 -10 10 -5
0 -10 -4 -10 -10z"/>
<path d="M9870 1505 c0 -9 62 -75 71 -75 18 0 8 21 -23 50 -31 27 -48 37 -48
25z"/>
<path d="M9760 1469 c1 -21 50 -73 60 -63 11 11 5 20 -33 53 -18 17 -27 20
-27 10z"/>
<path d="M9960 1415 c0 -8 5 -15 10 -15 6 0 10 7 10 15 0 8 -4 15 -10 15 -5 0
-10 -7 -10 -15z"/>
<path d="M9906 1395 c9 -14 20 -25 25 -25 5 0 2 11 -7 25 -9 14 -20 25 -25 25
-5 0 -2 -11 7 -25z"/>
<path d="M9840 1380 c1 -20 36 -65 43 -54 3 5 -6 23 -19 39 -14 18 -24 24 -24
15z"/>
<path d="M6251 1234 c0 -11 3 -14 6 -6 3 7 2 16 -1 19 -3 4 -6 -2 -5 -13z"/>
<path d="M9630 1155 c0 -8 4 -15 10 -15 5 0 7 7 4 15 -4 8 -8 15 -10 15 -2 0
-4 -7 -4 -15z"/>
<path d="M9394 1020 c4 -14 11 -38 15 -55 6 -27 41 -50 41 -27 0 20 -30 79
-46 93 -16 13 -17 12 -10 -11z"/>
<path d="M9200 492 c0 -10 7 -27 15 -38 16 -21 20 -8 9 34 -8 26 -24 29 -24 4z"/>
<path d="M7186 405 c-4 -14 -3 -31 1 -38 4 -7 10 0 15 18 4 16 4 33 -1 38 -5
5 -11 -3 -15 -18z"/>
<path d="M8497 353 c-14 -14 -6 -79 13 -108 11 -16 20 -42 20 -58 0 -15 15
-63 32 -107 30 -73 35 -80 60 -80 28 0 37 13 18 25 -15 9 -50 95 -56 139 -3
23 -15 53 -25 68 -10 15 -19 36 -19 47 0 25 -34 83 -43 74z"/>
<path d="M1421 234 c0 -11 3 -14 6 -6 3 7 2 16 -1 19 -3 4 -6 -2 -5 -13z"/>
<path d="M7221 229 c0 -13 4 -33 9 -44 7 -14 8 -8 3 20 -7 46 -13 59 -12 24z"/>
<path d="M9110 108 c0 -13 5 -29 11 -35 7 -7 13 -22 14 -35 1 -13 3 -26 4 -30
0 -5 10 -8 22 -8 16 0 19 4 13 23 -14 48 -32 83 -47 96 -15 12 -17 11 -17 -11z"/>
<path d="M8740 101 c0 -12 6 -21 16 -21 9 0 14 7 12 17 -5 25 -28 28 -28 4z"/>
<path d="M8070 86 c0 -17 39 -66 40 -49 0 6 -4 23 -10 37 -10 28 -30 35 -30
12z"/>
<path d="M8661 66 c-8 -9 -11 -26 -7 -41 5 -21 12 -25 41 -25 42 0 44 10 7 51
-25 28 -29 29 -41 15z"/>
<path d="M1648 64 c-3 -2 -3 -17 0 -34 4 -31 33 -42 48 -19 6 11 -40 62 -48
53z"/>
<path d="M7520 38 c0 -21 5 -38 10 -38 13 0 13 40 0 60 -7 11 -10 5 -10 -22z"/>
<path d="M9050 49 c0 -6 -6 -9 -14 -6 -13 5 -26 -12 -26 -34 0 -5 18 -9 40 -9
41 0 47 8 30 41 -12 21 -30 26 -30 8z"/>
<path d="M9210 20 c0 -14 7 -20 21 -20 15 0 19 4 15 16 -3 9 -6 18 -6 20 0 2
-7 4 -15 4 -8 0 -15 -9 -15 -20z"/>
<path d="M760 10 c0 -5 7 -10 15 -10 8 0 15 5 15 10 0 6 -7 10 -15 10 -8 0
-15 -4 -15 -10z"/>
<path d="M4715 10 c-3 -5 1 -10 9 -10 9 0 16 5 16 10 0 6 -4 10 -9 10 -6 0
-13 -4 -16 -10z"/>
</g>
</svg>
